<svg 
 xmlns="http://www.w3.org/2000/svg"
 xmlns:xlink="http://www.w3.org/1999/xlink"
 width="80px" height="80px">
<defs>
<filter id="Filter_0">
    <feFlood flood-color="rgb(255, 255, 255)" flood-opacity="1" result="floodOut" />
    <feComposite operator="atop" in="floodOut" in2="SourceGraphic" result="compOut" />
    <feBlend mode="normal" in="compOut" in2="SourceGraphic" />
</filter>

</defs>
<g filter="url(#Filter_0)">
<path fill-rule="evenodd"  stroke-width="2px" stroke="rgb(0, 0, 0)" fill="none"
 d="M75.000,33.000 L75.000,48.000 L66.684,48.000 C66.013,50.142 65.088,52.168 63.959,54.059 L69.698,59.799 L59.092,70.406 L53.157,64.471 C51.228,65.528 49.169,66.378 47.000,66.970 L47.000,75.000 L32.000,75.000 L32.000,66.970 C30.074,66.445 28.236,65.713 26.496,64.818 L20.908,70.406 L10.302,59.799 L15.418,54.682 C14.113,52.618 13.061,50.378 12.316,48.000 L5.000,48.000 L5.000,33.000 L11.766,33.000 C12.360,30.462 13.294,28.055 14.515,25.829 L9.594,20.908 L20.201,10.301 L24.934,15.034 C27.117,13.733 29.489,12.715 32.000,12.030 L32.000,5.000 L47.000,5.000 L47.000,12.030 C49.750,12.780 52.324,13.942 54.675,15.425 L59.799,10.301 L70.406,20.908 L64.821,26.493 C65.872,28.533 66.698,30.709 67.234,33.000 L75.000,33.000 Z"/>
<path fill-rule="evenodd"  stroke-width="1px" stroke="rgb(0, 0, 0)" fill="none"
 d="M40.000,23.999 C48.837,23.999 56.001,31.163 56.001,40.000 C56.001,48.837 48.837,56.001 40.000,56.001 C31.163,56.001 23.999,48.837 23.999,40.000 C23.999,31.163 31.163,23.999 40.000,23.999 Z"/>
<path fill-rule="evenodd"  stroke-width="2px" stroke="rgb(0, 0, 0)" fill="none"
 d="M40.000,28.000 C46.628,28.000 52.000,33.372 52.000,40.000 C52.000,46.628 46.628,52.000 40.000,52.000 C33.372,52.000 28.000,46.628 28.000,40.000 C28.000,33.372 33.372,28.000 40.000,28.000 Z"/>
</g>
</svg>