<svg 
 xmlns="http://www.w3.org/2000/svg"
 xmlns:xlink="http://www.w3.org/1999/xlink"
 width="1467px" height="1081px">
<defs>
<filter id="Filter_0">
    <feFlood flood-color="rgb(4, 81, 134)" flood-opacity="1" result="floodOut" />
    <feComposite operator="atop" in="floodOut" in2="SourceGraphic" result="compOut" />
    <feBlend mode="normal" in="compOut" in2="SourceGraphic" />
</filter>
<filter id="Filter_1">
    <feFlood flood-color="rgb(4, 81, 134)" flood-opacity="1" result="floodOut" />
    <feComposite operator="atop" in="floodOut" in2="SourceGraphic" result="compOut" />
    <feBlend mode="normal" in="compOut" in2="SourceGraphic" />
</filter>

</defs>
<path fill-rule="evenodd"  stroke-width="2px" stroke="rgb(66, 134, 180)" fill="rgb(4, 81, 134)"
 d="M993.505,812.998 L859.240,812.998 L778.681,812.998 C778.681,812.998 836.473,778.351 829.803,746.787 L615.326,264.385 L400.849,746.787 C394.178,778.351 451.970,812.998 451.970,812.998 L371.411,812.998 L237.146,812.998 L174.489,812.998 C234.568,784.079 267.388,738.395 283.138,709.553 L548.193,113.390 L548.065,113.102 L545.955,117.334 C545.955,117.334 546.984,114.993 547.159,111.064 L545.955,108.357 L545.955,101.797 C542.466,90.088 530.150,73.606 492.250,58.988 L545.955,58.988 L684.696,58.988 L738.402,58.988 C700.479,73.615 688.177,90.104 684.696,101.813 L684.696,108.357 L683.493,111.064 C683.667,114.993 684.696,117.334 684.696,117.334 L682.586,113.102 L682.458,113.390 L947.514,709.554 C963.264,738.396 996.084,784.079 1056.162,812.998 L993.505,812.998 Z"/>
<g filter="url(#Filter_0)">
<path fill-rule="evenodd"  stroke-width="2px" stroke="rgb(66, 134, 180)" opacity="0.502" fill="rgb(66, 134, 180)"
 d="M1343.400,273.156 L1343.442,273.175 L1224.832,540.707 L1224.875,540.726 L1106.265,808.259 L1106.307,808.278 L987.617,1075.991 L986.232,1075.372 L1104.842,807.840 L1104.800,807.821 L1223.409,540.288 L1223.367,540.270 L1341.977,272.737 L1341.935,272.718 L1460.625,5.005 L1462.010,5.624 L1343.400,273.156 ZM1335.842,273.175 L1217.232,540.707 L1217.274,540.726 L1098.664,808.259 L1098.707,808.278 L980.016,1075.991 L978.632,1075.372 L1097.241,807.840 L1097.199,807.821 L1215.809,540.288 L1215.767,540.270 L1334.376,272.737 L1334.334,272.718 L1453.024,5.005 L1454.409,5.624 L1335.800,273.156 L1335.842,273.175 ZM1328.241,273.175 L1209.631,540.707 L1209.674,540.726 L1091.064,808.259 L1091.106,808.278 L972.416,1075.991 L971.031,1075.372 L1089.641,807.840 L1089.599,807.821 L1208.208,540.288 L1208.166,540.270 L1326.776,272.737 L1326.734,272.718 L1445.424,5.005 L1446.809,5.624 L1328.199,273.156 L1328.241,273.175 ZM1320.641,273.175 L1202.031,540.707 L1202.073,540.726 L1083.463,808.259 L1083.506,808.278 L964.815,1075.991 L963.431,1075.372 L1082.040,807.840 L1081.998,807.821 L1200.608,540.288 L1200.566,540.270 L1319.176,272.737 L1319.133,272.718 L1437.824,5.005 L1439.208,5.624 L1320.599,273.156 L1320.641,273.175 ZM1313.040,273.175 L1194.431,540.707 L1194.473,540.726 L1075.863,808.259 L1075.905,808.278 L957.215,1075.991 L955.830,1075.372 L1074.440,807.840 L1074.398,807.821 L1193.007,540.288 L1192.965,540.270 L1311.575,272.737 L1311.533,272.718 L1430.223,5.005 L1431.608,5.624 L1312.998,273.156 L1313.040,273.175 ZM1305.440,273.175 L1186.830,540.707 L1186.872,540.726 L1068.262,808.259 L1068.305,808.278 L949.614,1075.991 L948.230,1075.372 L1066.839,807.840 L1066.797,807.821 L1185.407,540.288 L1185.365,540.270 L1303.975,272.737 L1303.932,272.718 L1422.623,5.005 L1424.007,5.624 L1305.398,273.156 L1305.440,273.175 ZM1297.839,273.175 L1179.230,540.707 L1179.272,540.726 L1060.662,808.259 L1060.704,808.278 L942.014,1075.991 L940.629,1075.372 L1059.239,807.840 L1059.197,807.821 L1177.806,540.288 L1177.764,540.270 L1296.374,272.737 L1296.332,272.718 L1415.022,5.005 L1416.407,5.624 L1297.797,273.156 L1297.839,273.175 ZM1290.239,273.175 L1171.629,540.707 L1171.671,540.726 L1053.061,808.259 L1053.104,808.278 L934.413,1075.991 L933.029,1075.372 L1051.638,807.840 L1051.596,807.821 L1170.206,540.288 L1170.164,540.270 L1288.774,272.737 L1288.731,272.718 L1407.422,5.005 L1408.806,5.624 L1290.197,273.156 L1290.239,273.175 ZM1282.638,273.175 L1164.029,540.707 L1164.071,540.726 L1045.461,808.259 L1045.503,808.278 L926.813,1075.991 L925.428,1075.372 L1044.038,807.840 L1043.996,807.821 L1162.605,540.288 L1162.563,540.270 L1281.173,272.737 L1281.131,272.718 L1399.821,5.005 L1401.206,5.624 L1282.596,273.156 L1282.638,273.175 ZM1275.038,273.175 L1156.428,540.707 L1156.470,540.726 L1037.860,808.259 L1037.903,808.278 L919.212,1075.991 L917.828,1075.372 L1036.437,807.840 L1036.395,807.821 L1155.005,540.288 L1154.963,540.270 L1273.573,272.737 L1273.530,272.718 L1392.221,5.005 L1393.605,5.624 L1274.996,273.156 L1275.038,273.175 ZM1267.437,273.175 L1148.828,540.707 L1148.870,540.726 L1030.260,808.259 L1030.302,808.278 L911.612,1075.991 L910.227,1075.372 L1028.837,807.840 L1028.795,807.821 L1147.404,540.288 L1147.362,540.270 L1265.972,272.737 L1265.930,272.718 L1384.620,5.005 L1386.005,5.624 L1267.395,273.156 L1267.437,273.175 ZM1259.837,273.175 L1141.227,540.707 L1141.269,540.726 L1022.660,808.259 L1022.702,808.278 L904.012,1075.991 L902.627,1075.372 L1021.236,807.840 L1021.194,807.821 L1139.804,540.288 L1139.762,540.270 L1258.372,272.737 L1258.330,272.718 L1377.020,5.005 L1378.405,5.624 L1259.795,273.156 L1259.837,273.175 ZM1252.236,273.175 L1133.627,540.707 L1133.669,540.726 L1015.059,808.259 L1015.101,808.278 L896.411,1075.991 L895.026,1075.372 L1013.636,807.840 L1013.594,807.821 L1132.204,540.288 L1132.161,540.270 L1250.771,272.737 L1250.729,272.718 L1369.419,5.005 L1370.804,5.624 L1252.194,273.156 L1252.236,273.175 ZM1244.636,273.175 L1126.026,540.707 L1126.068,540.726 L1007.458,808.259 L1007.501,808.278 L888.811,1075.991 L887.426,1075.372 L1006.035,807.840 L1005.993,807.821 L1124.603,540.288 L1124.561,540.270 L1243.171,272.737 L1243.129,272.718 L1361.819,5.005 L1363.204,5.624 L1244.594,273.156 L1244.636,273.175 ZM1237.035,273.175 L1118.426,540.707 L1118.468,540.726 L999.858,808.259 L999.900,808.278 L881.210,1075.991 L879.825,1075.372 L998.435,807.840 L998.393,807.821 L1117.003,540.288 L1116.960,540.270 L1235.570,272.737 L1235.528,272.718 L1354.218,5.005 L1355.603,5.624 L1236.993,273.156 L1237.035,273.175 ZM1229.435,273.175 L1110.825,540.707 L1110.867,540.726 L992.257,808.259 L992.300,808.278 L873.610,1075.991 L872.225,1075.372 L990.835,807.840 L990.792,807.821 L1109.402,540.288 L1109.360,540.270 L1227.970,272.737 L1227.928,272.718 L1346.618,5.005 L1348.003,5.624 L1229.393,273.156 L1229.435,273.175 ZM1221.834,273.175 L1103.225,540.707 L1103.267,540.726 L984.657,808.259 L984.699,808.278 L866.009,1075.991 L864.624,1075.372 L983.234,807.840 L983.192,807.821 L1101.801,540.288 L1101.759,540.270 L1220.369,272.737 L1220.327,272.718 L1339.017,5.005 L1340.402,5.624 L1221.792,273.156 L1221.834,273.175 ZM1214.234,273.175 L1095.624,540.707 L1095.666,540.726 L977.057,808.259 L977.099,808.278 L858.409,1075.991 L857.024,1075.372 L975.633,807.840 L975.591,807.821 L1094.201,540.288 L1094.159,540.270 L1212.769,272.737 L1212.727,272.718 L1331.417,5.005 L1332.802,5.624 L1214.192,273.156 L1214.234,273.175 ZM1206.633,273.175 L1088.024,540.707 L1088.066,540.726 L969.456,808.259 L969.498,808.278 L850.808,1075.991 L849.423,1075.372 L968.033,807.840 L967.991,807.821 L1086.601,540.288 L1086.558,540.270 L1205.168,272.737 L1205.126,272.718 L1323.816,5.005 L1325.201,5.624 L1206.591,273.156 L1206.633,273.175 ZM1199.033,273.175 L1080.423,540.707 L1080.465,540.726 L961.856,808.259 L961.898,808.278 L843.208,1075.991 L841.823,1075.372 L960.432,807.840 L960.390,807.821 L1079.000,540.288 L1078.958,540.270 L1197.568,272.737 L1197.526,272.718 L1316.216,5.005 L1317.601,5.624 L1198.991,273.156 L1199.033,273.175 ZM1191.432,273.175 L1072.823,540.707 L1072.865,540.726 L954.255,808.259 L954.297,808.278 L835.607,1075.991 L834.222,1075.372 L952.832,807.840 L952.790,807.821 L1071.400,540.288 L1071.357,540.270 L1189.967,272.737 L1189.925,272.718 L1308.615,5.005 L1310.000,5.624 L1191.390,273.156 L1191.432,273.175 ZM1183.832,273.175 L1065.222,540.707 L1065.264,540.726 L946.655,808.259 L946.697,808.278 L828.007,1075.991 L826.622,1075.372 L945.232,807.840 L945.189,807.821 L1063.799,540.288 L1063.757,540.270 L1182.367,272.737 L1182.325,272.718 L1301.015,5.005 L1302.400,5.624 L1183.790,273.156 L1183.832,273.175 ZM1176.231,273.175 L1057.622,540.707 L1057.664,540.726 L939.054,808.259 L939.096,808.278 L820.406,1075.991 L819.021,1075.372 L937.631,807.840 L937.589,807.821 L1056.199,540.288 L1056.157,540.270 L1174.766,272.737 L1174.724,272.718 L1293.414,5.005 L1294.799,5.624 L1176.189,273.156 L1176.231,273.175 ZM1168.631,273.175 L1050.021,540.707 L1050.063,540.726 L931.454,808.259 L931.496,808.278 L812.806,1075.991 L811.421,1075.372 L930.031,807.840 L929.988,807.821 L1048.598,540.288 L1048.556,540.270 L1167.166,272.737 L1167.124,272.718 L1285.814,5.005 L1287.199,5.624 L1168.589,273.156 L1168.631,273.175 ZM1161.031,273.175 L1042.421,540.707 L1042.463,540.726 L923.853,808.259 L923.895,808.278 L805.205,1075.991 L803.820,1075.372 L922.430,807.840 L922.388,807.821 L1040.998,540.288 L1040.955,540.270 L1159.565,272.737 L1159.523,272.718 L1278.213,5.005 L1279.598,5.624 L1160.988,273.156 L1161.031,273.175 ZM1153.430,273.175 L1034.820,540.707 L1034.862,540.726 L916.253,808.259 L916.295,808.278 L797.605,1075.991 L796.220,1075.372 L914.830,807.840 L914.787,807.821 L1033.397,540.288 L1033.355,540.270 L1151.965,272.737 L1151.923,272.718 L1270.613,5.005 L1271.998,5.624 L1153.388,273.156 L1153.430,273.175 ZM1145.829,273.175 L1027.220,540.707 L1027.262,540.726 L908.652,808.259 L908.694,808.278 L790.004,1075.991 L788.619,1075.372 L907.229,807.840 L907.187,807.821 L1025.797,540.288 L1025.755,540.270 L1144.364,272.737 L1144.322,272.718 L1263.012,5.005 L1264.397,5.624 L1145.788,273.156 L1145.829,273.175 ZM1138.229,273.175 L1019.619,540.707 L1019.661,540.726 L901.052,808.259 L901.094,808.278 L782.404,1075.991 L781.019,1075.372 L899.629,807.840 L899.586,807.821 L1018.196,540.288 L1018.154,540.270 L1136.764,272.737 L1136.722,272.718 L1255.412,5.005 L1256.797,5.624 L1138.187,273.156 L1138.229,273.175 ZM1130.629,273.175 L1012.019,540.707 L1012.061,540.726 L893.451,808.259 L893.493,808.278 L774.803,1075.991 L773.418,1075.372 L892.028,807.840 L891.986,807.821 L1010.596,540.288 L1010.554,540.270 L1129.163,272.737 L1129.121,272.718 L1247.811,5.005 L1249.196,5.624 L1130.587,273.156 L1130.629,273.175 ZM1123.028,273.175 L1004.418,540.707 L1004.460,540.726 L885.851,808.259 L885.893,808.278 L767.203,1075.991 L765.818,1075.372 L884.428,807.840 L884.385,807.821 L1002.995,540.288 L1002.953,540.270 L1121.563,272.737 L1121.521,272.718 L1240.211,5.005 L1241.596,5.624 L1122.986,273.156 L1123.028,273.175 ZM1115.428,273.175 L996.818,540.707 L996.860,540.726 L878.250,808.259 L878.292,808.278 L759.602,1075.991 L758.217,1075.372 L876.827,807.840 L876.785,807.821 L995.395,540.288 L995.353,540.270 L1113.962,272.737 L1113.920,272.718 L1232.610,5.005 L1233.995,5.624 L1115.385,273.156 L1115.428,273.175 ZM1107.827,273.175 L989.217,540.707 L989.260,540.726 L870.650,808.259 L870.692,808.278 L752.002,1075.991 L750.617,1075.372 L869.227,807.840 L869.184,807.821 L987.794,540.288 L987.752,540.270 L1106.362,272.737 L1106.320,272.718 L1225.010,5.005 L1226.395,5.624 L1107.785,273.156 L1107.827,273.175 ZM1100.227,273.175 L981.617,540.707 L981.659,540.726 L863.049,808.259 L863.091,808.278 L744.401,1075.991 L743.016,1075.372 L861.626,807.840 L861.584,807.821 L980.194,540.288 L980.152,540.270 L1098.761,272.737 L1098.719,272.718 L1217.409,5.005 L1218.794,5.624 L1100.185,273.156 L1100.227,273.175 ZM1092.626,273.175 L974.016,540.707 L974.058,540.726 L855.449,808.259 L855.491,808.278 L736.801,1075.991 L735.416,1075.372 L854.026,807.840 L853.983,807.821 L972.593,540.288 L972.551,540.270 L1091.161,272.737 L1091.119,272.718 L1209.809,5.005 L1211.194,5.624 L1092.584,273.156 L1092.626,273.175 ZM1085.026,273.175 L966.416,540.707 L966.458,540.726 L847.848,808.259 L847.890,808.278 L729.200,1075.991 L727.815,1075.372 L846.425,807.840 L846.383,807.821 L964.993,540.288 L964.951,540.270 L1083.560,272.737 L1083.518,272.718 L1202.208,5.005 L1203.593,5.624 L1084.984,273.156 L1085.026,273.175 ZM1077.425,273.175 L958.815,540.707 L958.857,540.726 L840.248,808.259 L840.290,808.278 L721.600,1075.991 L720.215,1075.372 L838.825,807.840 L838.783,807.821 L957.392,540.288 L957.350,540.270 L1075.960,272.737 L1075.918,272.718 L1194.608,5.005 L1195.993,5.624 L1077.383,273.156 L1077.425,273.175 ZM1069.825,273.175 L951.215,540.707 L951.257,540.726 L832.647,808.259 L832.689,808.278 L713.999,1075.991 L712.614,1075.372 L831.224,807.840 L831.182,807.821 L949.792,540.288 L949.750,540.270 L1068.359,272.737 L1068.317,272.718 L1187.007,5.005 L1188.392,5.624 L1069.783,273.156 L1069.825,273.175 ZM1062.224,273.175 L943.614,540.707 L943.657,540.726 L825.047,808.259 L825.089,808.278 L706.399,1075.991 L705.014,1075.372 L823.624,807.840 L823.581,807.821 L942.191,540.288 L942.149,540.270 L1060.759,272.737 L1060.717,272.718 L1179.407,5.005 L1180.792,5.624 L1062.182,273.156 L1062.224,273.175 ZM1054.624,273.175 L936.014,540.707 L936.056,540.726 L817.446,808.259 L817.488,808.278 L698.798,1075.991 L697.414,1075.372 L816.023,807.840 L815.981,807.821 L934.591,540.288 L934.549,540.270 L1053.158,272.737 L1053.116,272.718 L1171.806,5.005 L1173.191,5.624 L1054.582,273.156 L1054.624,273.175 ZM1047.023,273.175 L928.413,540.707 L928.456,540.726 L809.846,808.259 L809.888,808.278 L691.198,1075.991 L689.813,1075.372 L808.423,807.840 L808.381,807.821 L926.990,540.288 L926.948,540.270 L1045.558,272.737 L1045.516,272.718 L1164.206,5.005 L1165.591,5.624 L1046.981,273.156 L1047.023,273.175 ZM1039.423,273.175 L920.813,540.707 L920.855,540.726 L802.245,808.259 L802.288,808.278 L683.597,1075.991 L682.212,1075.372 L800.822,807.840 L800.780,807.821 L919.390,540.288 L919.348,540.270 L1037.957,272.737 L1037.915,272.718 L1156.605,5.005 L1157.990,5.624 L1039.381,273.156 L1039.423,273.175 ZM1031.822,273.175 L913.212,540.707 L913.255,540.726 L794.645,808.259 L794.687,808.278 L675.997,1075.991 L674.612,1075.372 L793.222,807.840 L793.180,807.821 L911.789,540.288 L911.747,540.270 L1030.357,272.737 L1030.315,272.718 L1149.005,5.005 L1150.390,5.624 L1031.780,273.156 L1031.822,273.175 ZM1024.222,273.175 L905.612,540.707 L905.654,540.726 L787.044,808.259 L787.086,808.278 L668.396,1075.991 L667.012,1075.372 L785.621,807.840 L785.579,807.821 L904.189,540.288 L904.147,540.270 L1022.756,272.737 L1022.714,272.718 L1141.404,5.005 L1142.789,5.624 L1024.180,273.156 L1024.222,273.175 ZM1016.621,273.175 L898.011,540.707 L898.054,540.726 L779.444,808.259 L779.486,808.278 L660.796,1075.991 L659.411,1075.372 L778.021,807.840 L777.979,807.821 L896.588,540.288 L896.546,540.270 L1015.156,272.737 L1015.114,272.718 L1133.804,5.005 L1135.189,5.624 L1016.579,273.156 L1016.621,273.175 ZM1009.021,273.175 L890.411,540.707 L890.453,540.726 L771.843,808.259 L771.886,808.278 L653.195,1075.991 L651.811,1075.372 L770.420,807.840 L770.378,807.821 L888.988,540.288 L888.946,540.270 L1007.556,272.737 L1007.513,272.718 L1126.204,5.005 L1127.588,5.624 L1008.979,273.156 L1009.021,273.175 ZM1001.420,273.175 L882.810,540.707 L882.853,540.726 L764.243,808.259 L764.285,808.278 L645.595,1075.991 L644.210,1075.372 L762.820,807.840 L762.778,807.821 L881.387,540.288 L881.345,540.270 L999.955,272.737 L999.913,272.718 L1118.603,5.005 L1119.988,5.624 L1001.378,273.156 L1001.420,273.175 ZM993.820,273.175 L875.210,540.707 L875.252,540.726 L756.642,808.259 L756.685,808.278 L637.994,1075.991 L636.610,1075.372 L755.219,807.840 L755.177,807.821 L873.787,540.288 L873.745,540.270 L992.355,272.737 L992.312,272.718 L1111.003,5.005 L1112.387,5.624 L993.778,273.156 L993.820,273.175 ZM986.219,273.175 L867.609,540.707 L867.652,540.726 L749.042,808.259 L749.084,808.278 L630.394,1075.991 L629.009,1075.372 L747.619,807.840 L747.577,807.821 L866.186,540.288 L866.144,540.270 L984.754,272.737 L984.712,272.718 L1103.402,5.005 L1104.787,5.624 L986.177,273.156 L986.219,273.175 ZM978.619,273.175 L860.009,540.707 L860.051,540.726 L741.441,808.259 L741.484,808.278 L622.793,1075.991 L621.409,1075.372 L740.018,807.840 L739.976,807.821 L858.586,540.288 L858.544,540.270 L977.154,272.737 L977.111,272.718 L1095.802,5.005 L1097.186,5.624 L978.577,273.156 L978.619,273.175 ZM971.018,273.175 L852.408,540.707 L852.451,540.726 L733.841,808.259 L733.883,808.278 L615.193,1075.991 L613.808,1075.372 L732.418,807.840 L732.376,807.821 L850.985,540.288 L850.943,540.270 L969.553,272.737 L969.511,272.718 L1088.201,5.005 L1089.586,5.624 L970.976,273.156 L971.018,273.175 ZM963.418,273.175 L844.808,540.707 L844.850,540.726 L726.240,808.259 L726.283,808.278 L607.592,1075.991 L606.208,1075.372 L724.817,807.840 L724.775,807.821 L843.385,540.288 L843.343,540.270 L961.953,272.737 L961.910,272.718 L1080.601,5.005 L1081.985,5.624 L963.376,273.156 L963.418,273.175 ZM955.817,273.175 L837.208,540.707 L837.250,540.726 L718.640,808.259 L718.682,808.278 L599.992,1075.991 L598.607,1075.372 L717.217,807.840 L717.175,807.821 L835.784,540.288 L835.742,540.270 L954.352,272.737 L954.310,272.718 L1073.000,5.005 L1074.385,5.624 L955.775,273.156 L955.817,273.175 ZM948.217,273.175 L829.607,540.707 L829.649,540.726 L711.039,808.259 L711.082,808.278 L592.391,1075.991 L591.007,1075.372 L709.616,807.840 L709.574,807.821 L828.184,540.288 L828.142,540.270 L946.752,272.737 L946.709,272.718 L1065.400,5.005 L1066.785,5.624 L948.175,273.156 L948.217,273.175 ZM940.616,273.175 L822.007,540.707 L822.049,540.726 L703.439,808.259 L703.481,808.278 L584.791,1075.991 L583.406,1075.372 L702.016,807.840 L701.974,807.821 L820.583,540.288 L820.541,540.270 L939.151,272.737 L939.109,272.718 L1057.799,5.005 L1059.184,5.624 L940.574,273.156 L940.616,273.175 ZM933.016,273.175 L814.406,540.707 L814.448,540.726 L695.838,808.259 L695.881,808.278 L577.190,1075.991 L575.806,1075.372 L694.415,807.840 L694.373,807.821 L812.983,540.288 L812.941,540.270 L931.551,272.737 L931.509,272.718 L1050.199,5.005 L1051.583,5.624 L932.974,273.156 L933.016,273.175 ZM925.415,273.175 L806.806,540.707 L806.848,540.726 L688.238,808.259 L688.280,808.278 L569.590,1075.991 L568.205,1075.372 L686.815,807.840 L686.773,807.821 L805.382,540.288 L805.340,540.270 L923.950,272.737 L923.908,272.718 L1042.598,5.005 L1043.983,5.624 L925.373,273.156 L925.415,273.175 ZM917.815,273.175 L799.205,540.707 L799.247,540.726 L680.637,808.259 L680.680,808.278 L561.990,1075.991 L560.605,1075.372 L679.214,807.840 L679.172,807.821 L797.782,540.288 L797.740,540.270 L916.350,272.737 L916.308,272.718 L1034.998,5.005 L1036.383,5.624 L917.773,273.156 L917.815,273.175 ZM910.214,273.175 L791.605,540.707 L791.647,540.726 L673.037,808.259 L673.079,808.278 L554.389,1075.991 L553.004,1075.372 L671.614,807.840 L671.572,807.821 L790.181,540.288 L790.139,540.270 L908.749,272.737 L908.707,272.718 L1027.397,5.005 L1028.782,5.624 L910.172,273.156 L910.214,273.175 ZM902.614,273.175 L784.004,540.707 L784.046,540.726 L665.436,808.259 L665.479,808.278 L546.788,1075.991 L545.404,1075.372 L664.013,807.840 L663.971,807.821 L782.581,540.288 L782.539,540.270 L901.149,272.737 L901.106,272.718 L1019.797,5.005 L1021.182,5.624 L902.572,273.156 L902.614,273.175 ZM895.013,273.175 L776.404,540.707 L776.446,540.726 L657.836,808.259 L657.878,808.278 L539.188,1075.991 L537.803,1075.372 L656.413,807.840 L656.371,807.821 L774.981,540.288 L774.938,540.270 L893.548,272.737 L893.506,272.718 L1012.196,5.005 L1013.581,5.624 L894.971,273.156 L895.013,273.175 ZM887.413,273.175 L768.803,540.707 L768.845,540.726 L650.235,808.259 L650.278,808.278 L531.588,1075.991 L530.203,1075.372 L648.812,807.840 L648.770,807.821 L767.380,540.288 L767.338,540.270 L885.948,272.737 L885.906,272.718 L1004.596,5.005 L1005.981,5.624 L887.371,273.156 L887.413,273.175 ZM879.812,273.175 L761.203,540.707 L761.245,540.726 L642.635,808.259 L642.677,808.278 L523.987,1075.991 L522.602,1075.372 L641.212,807.840 L641.170,807.821 L759.779,540.288 L759.737,540.270 L878.347,272.737 L878.305,272.718 L996.995,5.005 L998.380,5.624 L879.770,273.156 L879.812,273.175 ZM872.212,273.175 L753.602,540.707 L753.644,540.726 L635.034,808.259 L635.077,808.278 L516.387,1075.991 L515.002,1075.372 L633.611,807.840 L633.569,807.821 L752.179,540.288 L752.137,540.270 L870.747,272.737 L870.705,272.718 L989.395,5.005 L990.780,5.624 L872.170,273.156 L872.212,273.175 ZM864.611,273.175 L746.002,540.707 L746.044,540.726 L627.434,808.259 L627.476,808.278 L508.786,1075.991 L507.401,1075.372 L626.011,807.840 L625.969,807.821 L744.579,540.288 L744.536,540.270 L863.146,272.737 L863.104,272.718 L981.794,5.005 L983.179,5.624 L864.569,273.156 L864.611,273.175 ZM857.011,273.175 L738.401,540.707 L738.443,540.726 L619.834,808.259 L619.876,808.278 L501.186,1075.991 L499.801,1075.372 L618.410,807.840 L618.368,807.821 L736.978,540.288 L736.936,540.270 L855.546,272.737 L855.504,272.718 L974.194,5.005 L975.579,5.624 L856.969,273.156 L857.011,273.175 ZM849.410,273.175 L730.801,540.707 L730.843,540.726 L612.233,808.259 L612.275,808.278 L493.585,1075.991 L492.200,1075.372 L610.810,807.840 L610.768,807.821 L729.378,540.288 L729.335,540.270 L847.945,272.737 L847.903,272.718 L966.593,5.005 L967.978,5.624 L849.368,273.156 L849.410,273.175 ZM841.810,273.175 L723.200,540.707 L723.242,540.726 L604.632,808.259 L604.675,808.278 L485.985,1075.991 L484.600,1075.372 L603.210,807.840 L603.167,807.821 L721.777,540.288 L721.735,540.270 L840.345,272.737 L840.303,272.718 L958.993,5.005 L960.378,5.624 L841.768,273.156 L841.810,273.175 ZM834.209,273.175 L715.600,540.707 L715.642,540.726 L597.032,808.259 L597.074,808.278 L478.384,1075.991 L476.999,1075.372 L595.609,807.840 L595.567,807.821 L714.177,540.288 L714.135,540.270 L832.744,272.737 L832.702,272.718 L951.392,5.005 L952.777,5.624 L834.167,273.156 L834.209,273.175 ZM826.609,273.175 L707.999,540.707 L708.041,540.726 L589.432,808.259 L589.474,808.278 L470.784,1075.991 L469.399,1075.372 L588.009,807.840 L587.966,807.821 L706.576,540.288 L706.534,540.270 L825.144,272.737 L825.102,272.718 L943.792,5.005 L945.177,5.624 L826.567,273.156 L826.609,273.175 ZM819.009,273.175 L700.399,540.707 L700.441,540.726 L581.831,808.259 L581.873,808.278 L463.183,1075.991 L461.798,1075.372 L580.408,807.840 L580.366,807.821 L698.976,540.288 L698.933,540.270 L817.543,272.737 L817.501,272.718 L936.191,5.005 L937.576,5.624 L818.966,273.156 L819.009,273.175 ZM811.408,273.175 L692.798,540.707 L692.840,540.726 L574.231,808.259 L574.273,808.278 L455.583,1075.991 L454.198,1075.372 L572.808,807.840 L572.765,807.821 L691.375,540.288 L691.333,540.270 L809.943,272.737 L809.901,272.718 L928.591,5.005 L929.976,5.624 L811.366,273.156 L811.408,273.175 ZM803.807,273.175 L685.198,540.707 L685.240,540.726 L566.630,808.259 L566.672,808.278 L447.982,1075.991 L446.597,1075.372 L565.207,807.840 L565.165,807.821 L683.775,540.288 L683.733,540.270 L802.342,272.737 L802.300,272.718 L920.990,5.005 L922.375,5.624 L803.765,273.156 L803.807,273.175 ZM796.207,273.175 L677.597,540.707 L677.639,540.726 L559.030,808.259 L559.072,808.278 L440.382,1075.991 L438.997,1075.372 L557.607,807.840 L557.564,807.821 L676.174,540.288 L676.132,540.270 L794.742,272.737 L794.700,272.718 L913.390,5.005 L914.775,5.624 L796.165,273.156 L796.207,273.175 ZM788.607,273.175 L669.997,540.707 L670.039,540.726 L551.429,808.259 L551.471,808.278 L432.781,1075.991 L431.396,1075.372 L550.006,807.840 L549.964,807.821 L668.574,540.288 L668.532,540.270 L787.141,272.737 L787.099,272.718 L905.789,5.005 L907.174,5.624 L788.565,273.156 L788.607,273.175 ZM781.006,273.175 L662.396,540.707 L662.438,540.726 L543.829,808.259 L543.871,808.278 L425.181,1075.991 L423.796,1075.372 L542.406,807.840 L542.364,807.821 L660.973,540.288 L660.931,540.270 L779.541,272.737 L779.499,272.718 L898.189,5.005 L899.574,5.624 L780.964,273.156 L781.006,273.175 ZM773.406,273.175 L654.796,540.707 L654.838,540.726 L536.228,808.259 L536.270,808.278 L417.580,1075.991 L416.195,1075.372 L534.805,807.840 L534.763,807.821 L653.373,540.288 L653.331,540.270 L771.940,272.737 L771.898,272.718 L890.588,5.005 L891.973,5.624 L773.363,273.156 L773.406,273.175 ZM765.805,273.175 L647.195,540.707 L647.238,540.726 L528.628,808.259 L528.670,808.278 L409.980,1075.991 L408.595,1075.372 L527.205,807.840 L527.162,807.821 L645.772,540.288 L645.730,540.270 L764.340,272.737 L764.298,272.718 L882.988,5.005 L884.373,5.624 L765.763,273.156 L765.805,273.175 ZM758.205,273.175 L639.595,540.707 L639.637,540.726 L521.027,808.259 L521.069,808.278 L402.379,1075.991 L400.994,1075.372 L519.604,807.840 L519.562,807.821 L638.172,540.288 L638.130,540.270 L756.739,272.737 L756.697,272.718 L875.387,5.005 L876.772,5.624 L758.163,273.156 L758.205,273.175 ZM750.604,273.175 L631.994,540.707 L632.036,540.726 L513.427,808.259 L513.469,808.278 L394.779,1075.991 L393.394,1075.372 L512.004,807.840 L511.961,807.821 L630.571,540.288 L630.529,540.270 L749.139,272.737 L749.097,272.718 L867.787,5.005 L869.172,5.624 L750.562,273.156 L750.604,273.175 ZM743.004,273.175 L624.394,540.707 L624.436,540.726 L505.826,808.259 L505.868,808.278 L387.178,1075.991 L385.793,1075.372 L504.403,807.840 L504.361,807.821 L622.971,540.288 L622.929,540.270 L741.538,272.737 L741.496,272.718 L860.186,5.005 L861.571,5.624 L742.962,273.156 L743.004,273.175 ZM735.403,273.175 L616.793,540.707 L616.835,540.726 L498.226,808.259 L498.268,808.278 L379.578,1075.991 L378.193,1075.372 L496.803,807.840 L496.761,807.821 L615.370,540.288 L615.328,540.270 L733.938,272.737 L733.896,272.718 L852.586,5.005 L853.971,5.624 L735.361,273.156 L735.403,273.175 ZM727.803,273.175 L609.193,540.707 L609.235,540.726 L490.625,808.259 L490.667,808.278 L371.977,1075.991 L370.592,1075.372 L489.202,807.840 L489.160,807.821 L607.770,540.288 L607.728,540.270 L726.337,272.737 L726.295,272.718 L844.985,5.005 L846.370,5.624 L727.761,273.156 L727.803,273.175 ZM720.202,273.175 L601.592,540.707 L601.635,540.726 L483.025,808.259 L483.067,808.278 L364.377,1075.991 L362.992,1075.372 L481.602,807.840 L481.560,807.821 L600.169,540.288 L600.127,540.270 L718.737,272.737 L718.695,272.718 L837.385,5.005 L838.770,5.624 L720.160,273.156 L720.202,273.175 ZM712.602,273.175 L593.992,540.707 L594.034,540.726 L475.424,808.259 L475.466,808.278 L356.776,1075.991 L355.392,1075.372 L474.001,807.840 L473.959,807.821 L592.569,540.288 L592.527,540.270 L711.136,272.737 L711.094,272.718 L829.785,5.005 L831.169,5.624 L712.560,273.156 L712.602,273.175 ZM705.001,273.175 L586.391,540.707 L586.434,540.726 L467.824,808.259 L467.866,808.278 L349.176,1075.991 L347.791,1075.372 L466.401,807.840 L466.358,807.821 L584.968,540.288 L584.926,540.270 L703.536,272.737 L703.494,272.718 L822.184,5.005 L823.569,5.624 L704.959,273.156 L705.001,273.175 ZM697.401,273.175 L578.791,540.707 L578.833,540.726 L460.223,808.259 L460.266,808.278 L341.575,1075.991 L340.190,1075.372 L458.800,807.840 L458.758,807.821 L577.368,540.288 L577.326,540.270 L695.935,272.737 L695.893,272.718 L814.583,5.005 L815.968,5.624 L697.359,273.156 L697.401,273.175 ZM689.800,273.175 L571.190,540.707 L571.232,540.726 L452.623,808.259 L452.665,808.278 L333.975,1075.991 L332.590,1075.372 L451.200,807.840 L451.158,807.821 L569.767,540.288 L569.725,540.270 L688.335,272.737 L688.293,272.718 L806.983,5.005 L808.368,5.624 L689.758,273.156 L689.800,273.175 ZM682.200,273.175 L563.590,540.707 L563.632,540.726 L445.022,808.259 L445.064,808.278 L326.374,1075.991 L324.990,1075.372 L443.599,807.840 L443.557,807.821 L562.167,540.288 L562.125,540.270 L680.735,272.737 L680.692,272.718 L799.383,5.005 L800.767,5.624 L682.158,273.156 L682.200,273.175 ZM674.599,273.175 L555.989,540.707 L556.032,540.726 L437.422,808.259 L437.464,808.278 L318.774,1075.991 L317.389,1075.372 L435.999,807.840 L435.957,807.821 L554.566,540.288 L554.524,540.270 L673.134,272.737 L673.092,272.718 L791.782,5.005 L793.167,5.624 L674.557,273.156 L674.599,273.175 ZM666.999,273.175 L548.389,540.707 L548.431,540.726 L429.821,808.259 L429.864,808.278 L311.173,1075.991 L309.789,1075.372 L428.398,807.840 L428.356,807.821 L546.966,540.288 L546.924,540.270 L665.533,272.737 L665.491,272.718 L784.182,5.005 L785.566,5.624 L666.957,273.156 L666.999,273.175 ZM659.398,273.175 L540.788,540.707 L540.831,540.726 L422.221,808.259 L422.263,808.278 L303.573,1075.991 L302.188,1075.372 L420.798,807.840 L420.756,807.821 L539.365,540.288 L539.323,540.270 L657.933,272.737 L657.891,272.718 L776.581,5.005 L777.966,5.624 L659.356,273.156 L659.398,273.175 ZM651.798,273.175 L533.188,540.707 L533.230,540.726 L414.620,808.259 L414.663,808.278 L295.972,1075.991 L294.588,1075.372 L413.197,807.840 L413.155,807.821 L531.765,540.288 L531.723,540.270 L650.333,272.737 L650.290,272.718 L768.981,5.005 L770.365,5.624 L651.756,273.156 L651.798,273.175 ZM644.197,273.175 L525.588,540.707 L525.630,540.726 L407.020,808.259 L407.062,808.278 L288.372,1075.991 L286.987,1075.372 L405.597,807.840 L405.555,807.821 L524.164,540.288 L524.122,540.270 L642.732,272.737 L642.690,272.718 L761.380,5.005 L762.765,5.624 L644.155,273.156 L644.197,273.175 ZM636.597,273.175 L517.987,540.707 L518.029,540.726 L399.419,808.259 L399.462,808.278 L280.771,1075.991 L279.387,1075.372 L397.996,807.840 L397.954,807.821 L516.564,540.288 L516.522,540.270 L635.132,272.737 L635.089,272.718 L753.780,5.005 L755.164,5.624 L636.555,273.156 L636.597,273.175 ZM628.996,273.175 L510.386,540.707 L510.429,540.726 L391.819,808.259 L391.861,808.278 L273.171,1075.991 L271.786,1075.372 L390.396,807.840 L390.354,807.821 L508.963,540.288 L508.921,540.270 L627.531,272.737 L627.489,272.718 L746.179,5.005 L747.564,5.624 L628.954,273.156 L628.996,273.175 ZM621.396,273.175 L502.786,540.707 L502.828,540.726 L384.218,808.259 L384.261,808.278 L265.570,1075.991 L264.186,1075.372 L382.795,807.840 L382.753,807.821 L501.363,540.288 L501.321,540.270 L619.931,272.737 L619.889,272.718 L738.579,5.005 L739.963,5.624 L621.354,273.156 L621.396,273.175 ZM613.795,273.175 L495.186,540.707 L495.228,540.726 L376.618,808.259 L376.660,808.278 L257.970,1075.991 L256.585,1075.372 L375.195,807.840 L375.153,807.821 L493.762,540.288 L493.720,540.270 L612.330,272.737 L612.288,272.718 L730.978,5.005 L732.363,5.624 L613.753,273.156 L613.795,273.175 ZM606.195,273.175 L487.585,540.707 L487.627,540.726 L369.017,808.259 L369.060,808.278 L250.369,1075.991 L248.985,1075.372 L367.594,807.840 L367.552,807.821 L486.162,540.288 L486.120,540.270 L604.730,272.737 L604.687,272.718 L723.378,5.005 L724.763,5.624 L606.153,273.156 L606.195,273.175 ZM598.594,273.175 L479.985,540.707 L480.027,540.726 L361.417,808.259 L361.459,808.278 L242.769,1075.991 L241.384,1075.372 L359.994,807.840 L359.952,807.821 L478.562,540.288 L478.519,540.270 L597.129,272.737 L597.087,272.718 L715.777,5.005 L717.162,5.624 L598.552,273.156 L598.594,273.175 ZM590.994,273.175 L472.384,540.707 L472.426,540.726 L353.816,808.259 L353.859,808.278 L235.168,1075.991 L233.784,1075.372 L352.393,807.840 L352.351,807.821 L470.961,540.288 L470.919,540.270 L589.529,272.737 L589.487,272.718 L708.177,5.005 L709.561,5.624 L590.952,273.156 L590.994,273.175 ZM583.393,273.175 L464.784,540.707 L464.826,540.726 L346.216,808.259 L346.258,808.278 L227.568,1075.991 L226.183,1075.372 L344.793,807.840 L344.751,807.821 L463.360,540.288 L463.318,540.270 L581.928,272.737 L581.886,272.718 L700.576,5.005 L701.961,5.624 L583.351,273.156 L583.393,273.175 ZM575.793,273.175 L457.183,540.707 L457.225,540.726 L338.615,808.259 L338.658,808.278 L219.968,1075.991 L218.583,1075.372 L337.192,807.840 L337.150,807.821 L455.760,540.288 L455.718,540.270 L574.328,272.737 L574.286,272.718 L692.976,5.005 L694.361,5.624 L575.751,273.156 L575.793,273.175 ZM568.192,273.175 L449.583,540.707 L449.625,540.726 L331.015,808.259 L331.057,808.278 L212.367,1075.991 L210.982,1075.372 L329.592,807.840 L329.550,807.821 L448.159,540.288 L448.117,540.270 L566.727,272.737 L566.685,272.718 L685.375,5.005 L686.760,5.624 L568.150,273.156 L568.192,273.175 ZM560.592,273.175 L441.982,540.707 L442.024,540.726 L323.415,808.259 L323.457,808.278 L204.766,1075.991 L203.382,1075.372 L321.991,807.840 L321.949,807.821 L440.559,540.288 L440.517,540.270 L559.127,272.737 L559.085,272.718 L677.775,5.005 L679.160,5.624 L560.550,273.156 L560.592,273.175 ZM552.991,273.175 L434.382,540.707 L434.424,540.726 L315.814,808.259 L315.856,808.278 L197.166,1075.991 L195.781,1075.372 L314.391,807.840 L314.349,807.821 L432.959,540.288 L432.916,540.270 L551.526,272.737 L551.484,272.718 L670.174,5.005 L671.559,5.624 L552.949,273.156 L552.991,273.175 ZM545.391,273.175 L426.781,540.707 L426.823,540.726 L308.213,808.259 L308.256,808.278 L189.566,1075.991 L188.181,1075.372 L306.790,807.840 L306.748,807.821 L425.358,540.288 L425.316,540.270 L543.926,272.737 L543.884,272.718 L662.574,5.005 L663.959,5.624 L545.349,273.156 L545.391,273.175 ZM537.790,273.175 L419.181,540.707 L419.223,540.726 L300.613,808.259 L300.655,808.278 L181.965,1075.991 L180.580,1075.372 L299.190,807.840 L299.148,807.821 L417.758,540.288 L417.715,540.270 L536.325,272.737 L536.283,272.718 L654.973,5.005 L656.358,5.624 L537.748,273.156 L537.790,273.175 ZM530.190,273.175 L411.580,540.707 L411.622,540.726 L293.012,808.259 L293.055,808.278 L174.365,1075.991 L172.980,1075.372 L291.590,807.840 L291.547,807.821 L410.157,540.288 L410.115,540.270 L528.725,272.737 L528.683,272.718 L647.373,5.005 L648.758,5.624 L530.148,273.156 L530.190,273.175 ZM522.589,273.175 L403.980,540.707 L404.022,540.726 L285.412,808.259 L285.454,808.278 L166.764,1075.991 L165.379,1075.372 L283.989,807.840 L283.947,807.821 L402.557,540.288 L402.514,540.270 L521.124,272.737 L521.082,272.718 L639.772,5.005 L641.157,5.624 L522.547,273.156 L522.589,273.175 ZM514.989,273.175 L396.379,540.707 L396.421,540.726 L277.812,808.259 L277.854,808.278 L159.164,1075.991 L157.779,1075.372 L276.388,807.840 L276.346,807.821 L394.956,540.288 L394.914,540.270 L513.524,272.737 L513.482,272.718 L632.172,5.005 L633.557,5.624 L514.947,273.156 L514.989,273.175 ZM507.388,273.175 L388.779,540.707 L388.821,540.726 L270.211,808.259 L270.253,808.278 L151.563,1075.991 L150.178,1075.372 L268.788,807.840 L268.746,807.821 L387.356,540.288 L387.313,540.270 L505.923,272.737 L505.881,272.718 L624.571,5.005 L625.956,5.624 L507.346,273.156 L507.388,273.175 ZM499.788,273.175 L381.178,540.707 L381.220,540.726 L262.611,808.259 L262.653,808.278 L143.963,1075.991 L142.578,1075.372 L261.188,807.840 L261.145,807.821 L379.755,540.288 L379.713,540.270 L498.323,272.737 L498.281,272.718 L616.971,5.005 L618.356,5.624 L499.746,273.156 L499.788,273.175 ZM492.187,273.175 L373.578,540.707 L373.620,540.726 L255.010,808.259 L255.052,808.278 L136.362,1075.991 L134.977,1075.372 L253.587,807.840 L253.545,807.821 L372.155,540.288 L372.113,540.270 L490.722,272.737 L490.680,272.718 L609.370,5.005 L610.755,5.624 L492.145,273.156 L492.187,273.175 ZM484.587,273.175 L365.977,540.707 L366.019,540.726 L247.410,808.259 L247.452,808.278 L128.762,1075.991 L127.377,1075.372 L245.987,807.840 L245.944,807.821 L364.554,540.288 L364.512,540.270 L483.122,272.737 L483.080,272.718 L601.770,5.005 L603.155,5.624 L484.545,273.156 L484.587,273.175 ZM476.987,273.175 L358.377,540.707 L358.419,540.726 L239.809,808.259 L239.851,808.278 L121.161,1075.991 L119.776,1075.372 L238.386,807.840 L238.344,807.821 L356.954,540.288 L356.911,540.270 L475.521,272.737 L475.479,272.718 L594.169,5.005 L595.554,5.624 L476.944,273.156 L476.987,273.175 ZM469.386,273.175 L350.776,540.707 L350.818,540.726 L232.209,808.259 L232.251,808.278 L113.561,1075.991 L112.176,1075.372 L230.786,807.840 L230.743,807.821 L349.353,540.288 L349.311,540.270 L467.921,272.737 L467.879,272.718 L586.569,5.005 L587.954,5.624 L469.344,273.156 L469.386,273.175 ZM461.786,273.175 L343.176,540.707 L343.218,540.726 L224.608,808.259 L224.650,808.278 L105.960,1075.991 L104.575,1075.372 L223.185,807.840 L223.143,807.821 L341.753,540.288 L341.711,540.270 L460.320,272.737 L460.278,272.718 L578.968,5.005 L580.353,5.624 L461.743,273.156 L461.786,273.175 ZM454.185,273.175 L335.575,540.707 L335.617,540.726 L217.008,808.259 L217.050,808.278 L98.360,1075.991 L96.975,1075.372 L215.585,807.840 L215.542,807.821 L334.152,540.288 L334.110,540.270 L452.720,272.737 L452.678,272.718 L571.368,5.005 L572.753,5.624 L454.143,273.156 L454.185,273.175 ZM446.585,273.175 L327.975,540.707 L328.017,540.726 L209.407,808.259 L209.449,808.278 L90.759,1075.991 L89.374,1075.372 L207.984,807.840 L207.942,807.821 L326.552,540.288 L326.510,540.270 L445.119,272.737 L445.077,272.718 L563.767,5.005 L565.152,5.624 L446.543,273.156 L446.585,273.175 ZM438.984,273.175 L320.374,540.707 L320.416,540.726 L201.807,808.259 L201.849,808.278 L83.159,1075.991 L81.774,1075.372 L200.384,807.840 L200.341,807.821 L318.951,540.288 L318.909,540.270 L437.519,272.737 L437.477,272.718 L556.167,5.005 L557.552,5.624 L438.942,273.156 L438.984,273.175 ZM431.384,273.175 L312.774,540.707 L312.816,540.726 L194.206,808.259 L194.248,808.278 L75.558,1075.991 L74.173,1075.372 L192.783,807.840 L192.741,807.821 L311.351,540.288 L311.309,540.270 L429.918,272.737 L429.876,272.718 L548.566,5.005 L549.951,5.624 L431.342,273.156 L431.384,273.175 ZM423.783,273.175 L305.173,540.707 L305.215,540.726 L186.606,808.259 L186.648,808.278 L67.958,1075.991 L66.573,1075.372 L185.183,807.840 L185.140,807.821 L303.750,540.288 L303.708,540.270 L422.318,272.737 L422.276,272.718 L540.966,5.005 L542.351,5.624 L423.741,273.156 L423.783,273.175 ZM416.183,273.175 L297.573,540.707 L297.615,540.726 L179.005,808.259 L179.047,808.278 L60.357,1075.991 L58.972,1075.372 L177.582,807.840 L177.540,807.821 L296.150,540.288 L296.108,540.270 L414.717,272.737 L414.675,272.718 L533.365,5.005 L534.750,5.624 L416.141,273.156 L416.183,273.175 ZM408.582,273.175 L289.972,540.707 L290.014,540.726 L171.405,808.259 L171.447,808.278 L52.757,1075.991 L51.372,1075.372 L169.982,807.840 L169.939,807.821 L288.549,540.288 L288.507,540.270 L407.117,272.737 L407.075,272.718 L525.765,5.005 L527.150,5.624 L408.540,273.156 L408.582,273.175 ZM400.982,273.175 L282.372,540.707 L282.414,540.726 L163.804,808.259 L163.846,808.278 L45.156,1075.991 L43.771,1075.372 L162.381,807.840 L162.339,807.821 L280.949,540.288 L280.907,540.270 L399.516,272.737 L399.474,272.718 L518.164,5.005 L519.549,5.624 L400.940,273.156 L400.982,273.175 ZM393.381,273.175 L274.771,540.707 L274.813,540.726 L156.204,808.259 L156.246,808.278 L37.556,1075.991 L36.171,1075.372 L154.781,807.840 L154.739,807.821 L273.348,540.288 L273.306,540.270 L391.916,272.737 L391.874,272.718 L510.564,5.005 L511.949,5.624 L393.339,273.156 L393.381,273.175 ZM385.781,273.175 L267.171,540.707 L267.213,540.726 L148.603,808.259 L148.645,808.278 L29.955,1075.991 L28.570,1075.372 L147.180,807.840 L147.138,807.821 L265.748,540.288 L265.706,540.270 L384.315,272.737 L384.273,272.718 L502.963,5.005 L504.348,5.624 L385.739,273.156 L385.781,273.175 ZM378.180,273.175 L259.570,540.707 L259.613,540.726 L141.003,808.259 L141.045,808.278 L22.355,1075.991 L20.970,1075.372 L139.580,807.840 L139.538,807.821 L258.147,540.288 L258.105,540.270 L376.715,272.737 L376.673,272.718 L495.363,5.005 L496.748,5.624 L378.138,273.156 L378.180,273.175 ZM370.580,273.175 L251.970,540.707 L252.012,540.726 L133.402,808.259 L133.444,808.278 L14.754,1075.991 L13.370,1075.372 L131.979,807.840 L131.937,807.821 L250.547,540.288 L250.505,540.270 L369.114,272.737 L369.072,272.718 L487.762,5.005 L489.147,5.624 L370.538,273.156 L370.580,273.175 ZM362.979,273.175 L244.369,540.707 L244.412,540.726 L125.802,808.259 L125.844,808.278 L7.154,1075.991 L5.769,1075.372 L124.379,807.840 L124.336,807.821 L242.946,540.288 L242.904,540.270 L361.514,272.737 L361.472,272.718 L480.162,5.005 L481.547,5.624 L362.937,273.156 L362.979,273.175 Z"/>
</g>
<path fill-rule="evenodd"  stroke-width="2px" stroke="rgb(66, 134, 180)" fill="rgb(4, 81, 134)"
 d="M778.681,777.093 C761.152,794.298 738.402,812.998 738.402,812.998 L689.171,812.998 C689.171,812.998 738.402,778.589 738.402,754.652 C738.402,732.612 632.165,507.645 615.326,472.126 C598.501,507.645 492.350,732.612 492.350,754.652 C492.350,778.589 541.541,812.998 541.541,812.998 L492.350,812.998 C492.350,812.998 469.618,794.298 452.103,777.093 C434.588,759.888 447.631,736.699 447.631,736.699 L613.088,364.191 L613.088,364.182 L613.091,364.182 L617.563,364.182 L783.157,736.699 C783.157,736.699 796.210,759.888 778.681,777.093 Z"/>
<g filter="url(#Filter_1)">
<path fill-rule="evenodd"  stroke-width="2px" stroke="rgb(66, 134, 180)" opacity="0.502" fill="rgb(66, 134, 180)"
 d="M1342.640,273.156 L1342.682,273.175 L1224.072,540.707 L1224.115,540.726 L1105.505,808.259 L1105.547,808.278 L986.857,1075.991 L985.472,1075.372 L1104.082,807.840 L1104.040,807.821 L1222.649,540.288 L1222.607,540.270 L1341.217,272.737 L1341.175,272.718 L1459.865,5.005 L1461.250,5.624 L1342.640,273.156 ZM1335.082,273.175 L1216.472,540.707 L1216.514,540.726 L1097.904,808.259 L1097.946,808.278 L979.256,1075.991 L977.871,1075.372 L1096.481,807.840 L1096.439,807.821 L1215.049,540.288 L1215.007,540.270 L1333.616,272.737 L1333.574,272.718 L1452.264,5.005 L1453.649,5.624 L1335.040,273.156 L1335.082,273.175 ZM1327.481,273.175 L1208.871,540.707 L1208.914,540.726 L1090.304,808.259 L1090.346,808.278 L971.656,1075.991 L970.271,1075.372 L1088.881,807.840 L1088.839,807.821 L1207.448,540.288 L1207.406,540.270 L1326.016,272.737 L1325.974,272.718 L1444.664,5.005 L1446.049,5.624 L1327.439,273.156 L1327.481,273.175 ZM1319.881,273.175 L1201.271,540.707 L1201.313,540.726 L1082.703,808.259 L1082.745,808.278 L964.055,1075.991 L962.670,1075.372 L1081.280,807.840 L1081.238,807.821 L1199.848,540.288 L1199.806,540.270 L1318.416,272.737 L1318.373,272.718 L1437.064,5.005 L1438.448,5.624 L1319.839,273.156 L1319.881,273.175 ZM1312.280,273.175 L1193.671,540.707 L1193.713,540.726 L1075.103,808.259 L1075.145,808.278 L956.455,1075.991 L955.070,1075.372 L1073.680,807.840 L1073.638,807.821 L1192.247,540.288 L1192.205,540.270 L1310.815,272.737 L1310.773,272.718 L1429.463,5.005 L1430.848,5.624 L1312.238,273.156 L1312.280,273.175 ZM1304.680,273.175 L1186.070,540.707 L1186.112,540.726 L1067.502,808.259 L1067.544,808.278 L948.854,1075.991 L947.469,1075.372 L1066.079,807.840 L1066.037,807.821 L1184.647,540.288 L1184.605,540.270 L1303.215,272.737 L1303.172,272.718 L1421.863,5.005 L1423.247,5.624 L1304.638,273.156 L1304.680,273.175 ZM1297.079,273.175 L1178.469,540.707 L1178.512,540.726 L1059.902,808.259 L1059.944,808.278 L941.254,1075.991 L939.869,1075.372 L1058.479,807.840 L1058.437,807.821 L1177.046,540.288 L1177.004,540.270 L1295.614,272.737 L1295.572,272.718 L1414.262,5.005 L1415.647,5.624 L1297.037,273.156 L1297.079,273.175 ZM1289.479,273.175 L1170.869,540.707 L1170.911,540.726 L1052.301,808.259 L1052.343,808.278 L933.653,1075.991 L932.269,1075.372 L1050.878,807.840 L1050.836,807.821 L1169.446,540.288 L1169.404,540.270 L1288.014,272.737 L1287.971,272.718 L1406.662,5.005 L1408.046,5.624 L1289.437,273.156 L1289.479,273.175 ZM1281.878,273.175 L1163.269,540.707 L1163.311,540.726 L1044.701,808.259 L1044.743,808.278 L926.053,1075.991 L924.668,1075.372 L1043.278,807.840 L1043.236,807.821 L1161.845,540.288 L1161.803,540.270 L1280.413,272.737 L1280.371,272.718 L1399.061,5.005 L1400.446,5.624 L1281.836,273.156 L1281.878,273.175 ZM1274.278,273.175 L1155.668,540.707 L1155.710,540.726 L1037.100,808.259 L1037.143,808.278 L918.452,1075.991 L917.067,1075.372 L1035.677,807.840 L1035.635,807.821 L1154.245,540.288 L1154.203,540.270 L1272.813,272.737 L1272.770,272.718 L1391.461,5.005 L1392.845,5.624 L1274.236,273.156 L1274.278,273.175 ZM1266.677,273.175 L1148.068,540.707 L1148.110,540.726 L1029.500,808.259 L1029.542,808.278 L910.852,1075.991 L909.467,1075.372 L1028.077,807.840 L1028.035,807.821 L1146.644,540.288 L1146.602,540.270 L1265.212,272.737 L1265.170,272.718 L1383.860,5.005 L1385.245,5.624 L1266.635,273.156 L1266.677,273.175 ZM1259.077,273.175 L1140.467,540.707 L1140.509,540.726 L1021.899,808.259 L1021.942,808.278 L903.251,1075.991 L901.867,1075.372 L1020.476,807.840 L1020.434,807.821 L1139.044,540.288 L1139.002,540.270 L1257.612,272.737 L1257.569,272.718 L1376.260,5.005 L1377.644,5.624 L1259.035,273.156 L1259.077,273.175 ZM1251.476,273.175 L1132.867,540.707 L1132.909,540.726 L1014.299,808.259 L1014.341,808.278 L895.651,1075.991 L894.266,1075.372 L1012.876,807.840 L1012.834,807.821 L1131.444,540.288 L1131.401,540.270 L1250.011,272.737 L1249.969,272.718 L1368.659,5.005 L1370.044,5.624 L1251.434,273.156 L1251.476,273.175 ZM1243.876,273.175 L1125.266,540.707 L1125.308,540.726 L1006.698,808.259 L1006.741,808.278 L888.050,1075.991 L886.666,1075.372 L1005.275,807.840 L1005.233,807.821 L1123.843,540.288 L1123.801,540.270 L1242.411,272.737 L1242.369,272.718 L1361.059,5.005 L1362.444,5.624 L1243.834,273.156 L1243.876,273.175 ZM1236.275,273.175 L1117.666,540.707 L1117.708,540.726 L999.098,808.259 L999.140,808.278 L880.450,1075.991 L879.065,1075.372 L997.675,807.840 L997.633,807.821 L1116.242,540.288 L1116.200,540.270 L1234.810,272.737 L1234.768,272.718 L1353.458,5.005 L1354.843,5.624 L1236.233,273.156 L1236.275,273.175 ZM1228.675,273.175 L1110.065,540.707 L1110.107,540.726 L991.497,808.259 L991.540,808.278 L872.849,1075.991 L871.465,1075.372 L990.074,807.840 L990.032,807.821 L1108.642,540.288 L1108.600,540.270 L1227.210,272.737 L1227.168,272.718 L1345.858,5.005 L1347.243,5.624 L1228.633,273.156 L1228.675,273.175 ZM1221.074,273.175 L1102.465,540.707 L1102.507,540.726 L983.897,808.259 L983.939,808.278 L865.249,1075.991 L863.864,1075.372 L982.474,807.840 L982.432,807.821 L1101.041,540.288 L1100.999,540.270 L1219.609,272.737 L1219.567,272.718 L1338.257,5.005 L1339.642,5.624 L1221.032,273.156 L1221.074,273.175 ZM1213.474,273.175 L1094.864,540.707 L1094.906,540.726 L976.296,808.259 L976.339,808.278 L857.648,1075.991 L856.264,1075.372 L974.873,807.840 L974.831,807.821 L1093.441,540.288 L1093.399,540.270 L1212.009,272.737 L1211.967,272.718 L1330.657,5.005 L1332.042,5.624 L1213.432,273.156 L1213.474,273.175 ZM1205.873,273.175 L1087.264,540.707 L1087.306,540.726 L968.696,808.259 L968.738,808.278 L850.048,1075.991 L848.663,1075.372 L967.273,807.840 L967.231,807.821 L1085.841,540.288 L1085.798,540.270 L1204.408,272.737 L1204.366,272.718 L1323.056,5.005 L1324.441,5.624 L1205.831,273.156 L1205.873,273.175 ZM1198.273,273.175 L1079.663,540.707 L1079.705,540.726 L961.095,808.259 L961.138,808.278 L842.448,1075.991 L841.063,1075.372 L959.672,807.840 L959.630,807.821 L1078.240,540.288 L1078.198,540.270 L1196.808,272.737 L1196.766,272.718 L1315.456,5.005 L1316.841,5.624 L1198.231,273.156 L1198.273,273.175 ZM1190.672,273.175 L1072.063,540.707 L1072.105,540.726 L953.495,808.259 L953.537,808.278 L834.847,1075.991 L833.462,1075.372 L952.072,807.840 L952.030,807.821 L1070.640,540.288 L1070.597,540.270 L1189.207,272.737 L1189.165,272.718 L1307.855,5.005 L1309.240,5.624 L1190.630,273.156 L1190.672,273.175 ZM1183.072,273.175 L1064.462,540.707 L1064.504,540.726 L945.894,808.259 L945.937,808.278 L827.246,1075.991 L825.862,1075.372 L944.471,807.840 L944.429,807.821 L1063.039,540.288 L1062.997,540.270 L1181.607,272.737 L1181.565,272.718 L1300.255,5.005 L1301.640,5.624 L1183.030,273.156 L1183.072,273.175 ZM1175.471,273.175 L1056.862,540.707 L1056.904,540.726 L938.294,808.259 L938.336,808.278 L819.646,1075.991 L818.261,1075.372 L936.871,807.840 L936.829,807.821 L1055.439,540.288 L1055.396,540.270 L1174.006,272.737 L1173.964,272.718 L1292.654,5.005 L1294.039,5.624 L1175.429,273.156 L1175.471,273.175 ZM1167.871,273.175 L1049.261,540.707 L1049.303,540.726 L930.694,808.259 L930.736,808.278 L812.045,1075.991 L810.661,1075.372 L929.270,807.840 L929.228,807.821 L1047.838,540.288 L1047.796,540.270 L1166.406,272.737 L1166.364,272.718 L1285.054,5.005 L1286.439,5.624 L1167.829,273.156 L1167.871,273.175 ZM1160.270,273.175 L1041.661,540.707 L1041.703,540.726 L923.093,808.259 L923.135,808.278 L804.445,1075.991 L803.060,1075.372 L921.670,807.840 L921.628,807.821 L1040.238,540.288 L1040.195,540.270 L1158.805,272.737 L1158.763,272.718 L1277.453,5.005 L1278.838,5.624 L1160.228,273.156 L1160.270,273.175 ZM1152.670,273.175 L1034.060,540.707 L1034.102,540.726 L915.493,808.259 L915.535,808.278 L796.845,1075.991 L795.460,1075.372 L914.069,807.840 L914.027,807.821 L1032.637,540.288 L1032.595,540.270 L1151.205,272.737 L1151.163,272.718 L1269.853,5.005 L1271.238,5.624 L1152.628,273.156 L1152.670,273.175 ZM1145.069,273.175 L1026.460,540.707 L1026.502,540.726 L907.892,808.259 L907.934,808.278 L789.244,1075.991 L787.859,1075.372 L906.469,807.840 L906.427,807.821 L1025.037,540.288 L1024.995,540.270 L1143.604,272.737 L1143.562,272.718 L1262.252,5.005 L1263.637,5.624 L1145.027,273.156 L1145.069,273.175 ZM1137.469,273.175 L1018.859,540.707 L1018.901,540.726 L900.292,808.259 L900.334,808.278 L781.644,1075.991 L780.259,1075.372 L898.869,807.840 L898.826,807.821 L1017.436,540.288 L1017.394,540.270 L1136.004,272.737 L1135.962,272.718 L1254.652,5.005 L1256.037,5.624 L1137.427,273.156 L1137.469,273.175 ZM1129.869,273.175 L1011.259,540.707 L1011.301,540.726 L892.691,808.259 L892.733,808.278 L774.043,1075.991 L772.658,1075.372 L891.268,807.840 L891.226,807.821 L1009.836,540.288 L1009.794,540.270 L1128.403,272.737 L1128.361,272.718 L1247.051,5.005 L1248.436,5.624 L1129.826,273.156 L1129.869,273.175 ZM1122.268,273.175 L1003.658,540.707 L1003.700,540.726 L885.091,808.259 L885.133,808.278 L766.443,1075.991 L765.058,1075.372 L883.667,807.840 L883.625,807.821 L1002.235,540.288 L1002.193,540.270 L1120.803,272.737 L1120.761,272.718 L1239.451,5.005 L1240.836,5.624 L1122.226,273.156 L1122.268,273.175 ZM1114.668,273.175 L996.058,540.707 L996.100,540.726 L877.490,808.259 L877.532,808.278 L758.842,1075.991 L757.457,1075.372 L876.067,807.840 L876.025,807.821 L994.635,540.288 L994.592,540.270 L1113.202,272.737 L1113.160,272.718 L1231.850,5.005 L1233.235,5.624 L1114.625,273.156 L1114.668,273.175 ZM1107.067,273.175 L988.457,540.707 L988.499,540.726 L869.890,808.259 L869.932,808.278 L751.242,1075.991 L749.857,1075.372 L868.467,807.840 L868.424,807.821 L987.034,540.288 L986.992,540.270 L1105.602,272.737 L1105.560,272.718 L1224.250,5.005 L1225.635,5.624 L1107.025,273.156 L1107.067,273.175 ZM1099.467,273.175 L980.857,540.707 L980.899,540.726 L862.289,808.259 L862.331,808.278 L743.641,1075.991 L742.256,1075.372 L860.866,807.840 L860.824,807.821 L979.434,540.288 L979.392,540.270 L1098.001,272.737 L1097.959,272.718 L1216.649,5.005 L1218.034,5.624 L1099.425,273.156 L1099.467,273.175 ZM1091.866,273.175 L973.256,540.707 L973.298,540.726 L854.689,808.259 L854.731,808.278 L736.041,1075.991 L734.656,1075.372 L853.266,807.840 L853.223,807.821 L971.833,540.288 L971.791,540.270 L1090.401,272.737 L1090.359,272.718 L1209.049,5.005 L1210.434,5.624 L1091.824,273.156 L1091.866,273.175 ZM1084.266,273.175 L965.656,540.707 L965.698,540.726 L847.088,808.259 L847.130,808.278 L728.440,1075.991 L727.055,1075.372 L845.665,807.840 L845.623,807.821 L964.233,540.288 L964.191,540.270 L1082.800,272.737 L1082.758,272.718 L1201.448,5.005 L1202.833,5.624 L1084.224,273.156 L1084.266,273.175 ZM1076.665,273.175 L958.055,540.707 L958.097,540.726 L839.488,808.259 L839.530,808.278 L720.840,1075.991 L719.455,1075.372 L838.065,807.840 L838.023,807.821 L956.632,540.288 L956.590,540.270 L1075.200,272.737 L1075.158,272.718 L1193.848,5.005 L1195.233,5.624 L1076.623,273.156 L1076.665,273.175 ZM1069.065,273.175 L950.455,540.707 L950.497,540.726 L831.887,808.259 L831.929,808.278 L713.239,1075.991 L711.854,1075.372 L830.464,807.840 L830.422,807.821 L949.032,540.288 L948.990,540.270 L1067.599,272.737 L1067.557,272.718 L1186.247,5.005 L1187.632,5.624 L1069.023,273.156 L1069.065,273.175 ZM1061.464,273.175 L942.854,540.707 L942.897,540.726 L824.287,808.259 L824.329,808.278 L705.639,1075.991 L704.254,1075.372 L822.864,807.840 L822.821,807.821 L941.431,540.288 L941.389,540.270 L1059.999,272.737 L1059.957,272.718 L1178.647,5.005 L1180.032,5.624 L1061.422,273.156 L1061.464,273.175 ZM1053.864,273.175 L935.254,540.707 L935.296,540.726 L816.686,808.259 L816.728,808.278 L698.038,1075.991 L696.653,1075.372 L815.263,807.840 L815.221,807.821 L933.831,540.288 L933.789,540.270 L1052.398,272.737 L1052.356,272.718 L1171.046,5.005 L1172.431,5.624 L1053.822,273.156 L1053.864,273.175 ZM1046.263,273.175 L927.653,540.707 L927.695,540.726 L809.086,808.259 L809.128,808.278 L690.438,1075.991 L689.053,1075.372 L807.663,807.840 L807.621,807.821 L926.230,540.288 L926.188,540.270 L1044.798,272.737 L1044.756,272.718 L1163.446,5.005 L1164.831,5.624 L1046.221,273.156 L1046.263,273.175 ZM1038.663,273.175 L920.053,540.707 L920.095,540.726 L801.485,808.259 L801.527,808.278 L682.837,1075.991 L681.452,1075.372 L800.062,807.840 L800.020,807.821 L918.630,540.288 L918.588,540.270 L1037.197,272.737 L1037.155,272.718 L1155.845,5.005 L1157.230,5.624 L1038.621,273.156 L1038.663,273.175 ZM1031.062,273.175 L912.452,540.707 L912.495,540.726 L793.885,808.259 L793.927,808.278 L675.237,1075.991 L673.852,1075.372 L792.462,807.840 L792.420,807.821 L911.029,540.288 L910.987,540.270 L1029.597,272.737 L1029.555,272.718 L1148.245,5.005 L1149.630,5.624 L1031.020,273.156 L1031.062,273.175 ZM1023.462,273.175 L904.852,540.707 L904.894,540.726 L786.284,808.259 L786.326,808.278 L667.636,1075.991 L666.251,1075.372 L784.861,807.840 L784.819,807.821 L903.429,540.288 L903.387,540.270 L1021.996,272.737 L1021.954,272.718 L1140.644,5.005 L1142.029,5.624 L1023.420,273.156 L1023.462,273.175 ZM1015.861,273.175 L897.251,540.707 L897.294,540.726 L778.684,808.259 L778.726,808.278 L660.036,1075.991 L658.651,1075.372 L777.261,807.840 L777.219,807.821 L895.828,540.288 L895.786,540.270 L1014.396,272.737 L1014.354,272.718 L1133.044,5.005 L1134.429,5.624 L1015.819,273.156 L1015.861,273.175 ZM1008.261,273.175 L889.651,540.707 L889.693,540.726 L771.083,808.259 L771.125,808.278 L652.435,1075.991 L651.050,1075.372 L769.660,807.840 L769.618,807.821 L888.228,540.288 L888.186,540.270 L1006.796,272.737 L1006.753,272.718 L1125.444,5.005 L1126.828,5.624 L1008.219,273.156 L1008.261,273.175 ZM1000.660,273.175 L882.050,540.707 L882.093,540.726 L763.483,808.259 L763.525,808.278 L644.835,1075.991 L643.450,1075.372 L762.060,807.840 L762.018,807.821 L880.627,540.288 L880.585,540.270 L999.195,272.737 L999.153,272.718 L1117.843,5.005 L1119.228,5.624 L1000.618,273.156 L1000.660,273.175 ZM993.060,273.175 L874.450,540.707 L874.492,540.726 L755.882,808.259 L755.924,808.278 L637.234,1075.991 L635.849,1075.372 L754.459,807.840 L754.417,807.821 L873.027,540.288 L872.985,540.270 L991.594,272.737 L991.552,272.718 L1110.242,5.005 L1111.627,5.624 L993.018,273.156 L993.060,273.175 ZM985.459,273.175 L866.849,540.707 L866.892,540.726 L748.282,808.259 L748.324,808.278 L629.634,1075.991 L628.249,1075.372 L746.859,807.840 L746.817,807.821 L865.426,540.288 L865.384,540.270 L983.994,272.737 L983.952,272.718 L1102.642,5.005 L1104.027,5.624 L985.417,273.156 L985.459,273.175 ZM977.859,273.175 L859.249,540.707 L859.291,540.726 L740.681,808.259 L740.723,808.278 L622.033,1075.991 L620.648,1075.372 L739.258,807.840 L739.216,807.821 L857.826,540.288 L857.784,540.270 L976.394,272.737 L976.351,272.718 L1095.042,5.005 L1096.426,5.624 L977.817,273.156 L977.859,273.175 ZM970.258,273.175 L851.648,540.707 L851.691,540.726 L733.081,808.259 L733.123,808.278 L614.433,1075.991 L613.048,1075.372 L731.658,807.840 L731.616,807.821 L850.225,540.288 L850.183,540.270 L968.793,272.737 L968.751,272.718 L1087.441,5.005 L1088.826,5.624 L970.216,273.156 L970.258,273.175 ZM962.658,273.175 L844.048,540.707 L844.090,540.726 L725.480,808.259 L725.522,808.278 L606.832,1075.991 L605.447,1075.372 L724.057,807.840 L724.015,807.821 L842.625,540.288 L842.583,540.270 L961.193,272.737 L961.150,272.718 L1079.841,5.005 L1081.225,5.624 L962.616,273.156 L962.658,273.175 ZM955.057,273.175 L836.447,540.707 L836.490,540.726 L717.880,808.259 L717.922,808.278 L599.232,1075.991 L597.847,1075.372 L716.457,807.840 L716.415,807.821 L835.024,540.288 L834.982,540.270 L953.592,272.737 L953.550,272.718 L1072.240,5.005 L1073.625,5.624 L955.015,273.156 L955.057,273.175 ZM947.457,273.175 L828.847,540.707 L828.889,540.726 L710.279,808.259 L710.322,808.278 L591.631,1075.991 L590.247,1075.372 L708.856,807.840 L708.814,807.821 L827.424,540.288 L827.382,540.270 L945.992,272.737 L945.949,272.718 L1064.640,5.005 L1066.024,5.624 L947.415,273.156 L947.457,273.175 ZM939.856,273.175 L821.247,540.707 L821.289,540.726 L702.679,808.259 L702.721,808.278 L584.031,1075.991 L582.646,1075.372 L701.256,807.840 L701.214,807.821 L819.823,540.288 L819.781,540.270 L938.391,272.737 L938.349,272.718 L1057.039,5.005 L1058.424,5.624 L939.814,273.156 L939.856,273.175 ZM932.256,273.175 L813.646,540.707 L813.688,540.726 L695.078,808.259 L695.121,808.278 L576.430,1075.991 L575.046,1075.372 L693.655,807.840 L693.613,807.821 L812.223,540.288 L812.181,540.270 L930.791,272.737 L930.748,272.718 L1049.439,5.005 L1050.823,5.624 L932.214,273.156 L932.256,273.175 ZM924.655,273.175 L806.046,540.707 L806.088,540.726 L687.478,808.259 L687.520,808.278 L568.830,1075.991 L567.445,1075.372 L686.055,807.840 L686.013,807.821 L804.622,540.288 L804.580,540.270 L923.190,272.737 L923.148,272.718 L1041.838,5.005 L1043.223,5.624 L924.613,273.156 L924.655,273.175 ZM917.055,273.175 L798.445,540.707 L798.487,540.726 L679.877,808.259 L679.920,808.278 L561.229,1075.991 L559.845,1075.372 L678.454,807.840 L678.412,807.821 L797.022,540.288 L796.980,540.270 L915.590,272.737 L915.548,272.718 L1034.238,5.005 L1035.622,5.624 L917.013,273.156 L917.055,273.175 ZM909.454,273.175 L790.845,540.707 L790.887,540.726 L672.277,808.259 L672.319,808.278 L553.629,1075.991 L552.244,1075.372 L670.854,807.840 L670.812,807.821 L789.421,540.288 L789.379,540.270 L907.989,272.737 L907.947,272.718 L1026.637,5.005 L1028.022,5.624 L909.412,273.156 L909.454,273.175 ZM901.854,273.175 L783.244,540.707 L783.286,540.726 L664.676,808.259 L664.719,808.278 L546.028,1075.991 L544.644,1075.372 L663.253,807.840 L663.211,807.821 L781.821,540.288 L781.779,540.270 L900.389,272.737 L900.346,272.718 L1019.037,5.005 L1020.422,5.624 L901.812,273.156 L901.854,273.175 ZM894.253,273.175 L775.644,540.707 L775.686,540.726 L657.076,808.259 L657.118,808.278 L538.428,1075.991 L537.043,1075.372 L655.653,807.840 L655.611,807.821 L774.221,540.288 L774.178,540.270 L892.788,272.737 L892.746,272.718 L1011.436,5.005 L1012.821,5.624 L894.211,273.156 L894.253,273.175 ZM886.653,273.175 L768.043,540.707 L768.085,540.726 L649.475,808.259 L649.518,808.278 L530.827,1075.991 L529.443,1075.372 L648.052,807.840 L648.010,807.821 L766.620,540.288 L766.578,540.270 L885.188,272.737 L885.146,272.718 L1003.836,5.005 L1005.220,5.624 L886.611,273.156 L886.653,273.175 ZM879.052,273.175 L760.443,540.707 L760.485,540.726 L641.875,808.259 L641.917,808.278 L523.227,1075.991 L521.842,1075.372 L640.452,807.840 L640.410,807.821 L759.019,540.288 L758.977,540.270 L877.587,272.737 L877.545,272.718 L996.235,5.005 L997.620,5.624 L879.010,273.156 L879.052,273.175 ZM871.452,273.175 L752.842,540.707 L752.884,540.726 L634.274,808.259 L634.317,808.278 L515.626,1075.991 L514.242,1075.372 L632.851,807.840 L632.809,807.821 L751.419,540.288 L751.377,540.270 L869.987,272.737 L869.945,272.718 L988.635,5.005 L990.020,5.624 L871.410,273.156 L871.452,273.175 ZM863.851,273.175 L745.242,540.707 L745.284,540.726 L626.674,808.259 L626.716,808.278 L508.026,1075.991 L506.641,1075.372 L625.251,807.840 L625.209,807.821 L743.819,540.288 L743.776,540.270 L862.386,272.737 L862.344,272.718 L981.034,5.005 L982.419,5.624 L863.809,273.156 L863.851,273.175 ZM856.251,273.175 L737.641,540.707 L737.683,540.726 L619.074,808.259 L619.116,808.278 L500.425,1075.991 L499.041,1075.372 L617.650,807.840 L617.608,807.821 L736.218,540.288 L736.176,540.270 L854.786,272.737 L854.744,272.718 L973.434,5.005 L974.819,5.624 L856.209,273.156 L856.251,273.175 ZM848.650,273.175 L730.041,540.707 L730.083,540.726 L611.473,808.259 L611.515,808.278 L492.825,1075.991 L491.440,1075.372 L610.050,807.840 L610.008,807.821 L728.618,540.288 L728.575,540.270 L847.185,272.737 L847.143,272.718 L965.833,5.005 L967.218,5.624 L848.608,273.156 L848.650,273.175 ZM841.050,273.175 L722.440,540.707 L722.482,540.726 L603.872,808.259 L603.915,808.278 L485.224,1075.991 L483.840,1075.372 L602.449,807.840 L602.407,807.821 L721.017,540.288 L720.975,540.270 L839.585,272.737 L839.543,272.718 L958.233,5.005 L959.618,5.624 L841.008,273.156 L841.050,273.175 ZM833.449,273.175 L714.840,540.707 L714.882,540.726 L596.272,808.259 L596.314,808.278 L477.624,1075.991 L476.239,1075.372 L594.849,807.840 L594.807,807.821 L713.417,540.288 L713.374,540.270 L831.984,272.737 L831.942,272.718 L950.632,5.005 L952.017,5.624 L833.407,273.156 L833.449,273.175 ZM825.849,273.175 L707.239,540.707 L707.281,540.726 L588.672,808.259 L588.714,808.278 L470.024,1075.991 L468.639,1075.372 L587.248,807.840 L587.206,807.821 L705.816,540.288 L705.774,540.270 L824.384,272.737 L824.342,272.718 L943.032,5.005 L944.417,5.624 L825.807,273.156 L825.849,273.175 ZM818.249,273.175 L699.639,540.707 L699.681,540.726 L581.071,808.259 L581.113,808.278 L462.423,1075.991 L461.038,1075.372 L579.648,807.840 L579.606,807.821 L698.216,540.288 L698.173,540.270 L816.783,272.737 L816.741,272.718 L935.431,5.005 L936.816,5.624 L818.206,273.156 L818.249,273.175 ZM810.648,273.175 L692.038,540.707 L692.080,540.726 L573.471,808.259 L573.513,808.278 L454.823,1075.991 L453.438,1075.372 L572.047,807.840 L572.005,807.821 L690.615,540.288 L690.573,540.270 L809.183,272.737 L809.141,272.718 L927.831,5.005 L929.216,5.624 L810.606,273.156 L810.648,273.175 ZM803.047,273.175 L684.438,540.707 L684.480,540.726 L565.870,808.259 L565.912,808.278 L447.222,1075.991 L445.837,1075.372 L564.447,807.840 L564.405,807.821 L683.015,540.288 L682.972,540.270 L801.582,272.737 L801.540,272.718 L920.230,5.005 L921.615,5.624 L803.005,273.156 L803.047,273.175 ZM795.447,273.175 L676.837,540.707 L676.879,540.726 L558.270,808.259 L558.312,808.278 L439.622,1075.991 L438.237,1075.372 L556.847,807.840 L556.804,807.821 L675.414,540.288 L675.372,540.270 L793.982,272.737 L793.940,272.718 L912.630,5.005 L914.015,5.624 L795.405,273.156 L795.447,273.175 ZM787.847,273.175 L669.237,540.707 L669.279,540.726 L550.669,808.259 L550.711,808.278 L432.021,1075.991 L430.636,1075.372 L549.246,807.840 L549.204,807.821 L667.814,540.288 L667.772,540.270 L786.381,272.737 L786.339,272.718 L905.029,5.005 L906.414,5.624 L787.805,273.156 L787.847,273.175 ZM780.246,273.175 L661.636,540.707 L661.678,540.726 L543.069,808.259 L543.111,808.278 L424.421,1075.991 L423.036,1075.372 L541.645,807.840 L541.603,807.821 L660.213,540.288 L660.171,540.270 L778.781,272.737 L778.739,272.718 L897.429,5.005 L898.814,5.624 L780.204,273.156 L780.246,273.175 ZM772.646,273.175 L654.036,540.707 L654.078,540.726 L535.468,808.259 L535.510,808.278 L416.820,1075.991 L415.435,1075.372 L534.045,807.840 L534.003,807.821 L652.613,540.288 L652.571,540.270 L771.180,272.737 L771.138,272.718 L889.828,5.005 L891.213,5.624 L772.603,273.156 L772.646,273.175 ZM765.045,273.175 L646.435,540.707 L646.477,540.726 L527.868,808.259 L527.910,808.278 L409.220,1075.991 L407.835,1075.372 L526.445,807.840 L526.402,807.821 L645.012,540.288 L644.970,540.270 L763.580,272.737 L763.538,272.718 L882.228,5.005 L883.613,5.624 L765.003,273.156 L765.045,273.175 ZM757.445,273.175 L638.835,540.707 L638.877,540.726 L520.267,808.259 L520.309,808.278 L401.619,1075.991 L400.234,1075.372 L518.844,807.840 L518.802,807.821 L637.412,540.288 L637.370,540.270 L755.979,272.737 L755.937,272.718 L874.627,5.005 L876.012,5.624 L757.403,273.156 L757.445,273.175 ZM749.844,273.175 L631.234,540.707 L631.276,540.726 L512.667,808.259 L512.709,808.278 L394.019,1075.991 L392.634,1075.372 L511.244,807.840 L511.201,807.821 L629.811,540.288 L629.769,540.270 L748.379,272.737 L748.337,272.718 L867.027,5.005 L868.412,5.624 L749.802,273.156 L749.844,273.175 ZM742.244,273.175 L623.634,540.707 L623.676,540.726 L505.066,808.259 L505.108,808.278 L386.418,1075.991 L385.033,1075.372 L503.643,807.840 L503.601,807.821 L622.211,540.288 L622.169,540.270 L740.778,272.737 L740.736,272.718 L859.426,5.005 L860.811,5.624 L742.202,273.156 L742.244,273.175 ZM734.643,273.175 L616.033,540.707 L616.075,540.726 L497.466,808.259 L497.508,808.278 L378.818,1075.991 L377.433,1075.372 L496.043,807.840 L496.001,807.821 L614.610,540.288 L614.568,540.270 L733.178,272.737 L733.136,272.718 L851.826,5.005 L853.211,5.624 L734.601,273.156 L734.643,273.175 ZM727.043,273.175 L608.433,540.707 L608.475,540.726 L489.865,808.259 L489.907,808.278 L371.217,1075.991 L369.832,1075.372 L488.442,807.840 L488.400,807.821 L607.010,540.288 L606.968,540.270 L725.577,272.737 L725.535,272.718 L844.225,5.005 L845.610,5.624 L727.001,273.156 L727.043,273.175 ZM719.442,273.175 L600.832,540.707 L600.875,540.726 L482.265,808.259 L482.307,808.278 L363.617,1075.991 L362.232,1075.372 L480.842,807.840 L480.799,807.821 L599.409,540.288 L599.367,540.270 L717.977,272.737 L717.935,272.718 L836.625,5.005 L838.010,5.624 L719.400,273.156 L719.442,273.175 ZM711.842,273.175 L593.232,540.707 L593.274,540.726 L474.664,808.259 L474.706,808.278 L356.016,1075.991 L354.631,1075.372 L473.241,807.840 L473.199,807.821 L591.809,540.288 L591.767,540.270 L710.376,272.737 L710.334,272.718 L829.024,5.005 L830.409,5.624 L711.800,273.156 L711.842,273.175 ZM704.241,273.175 L585.631,540.707 L585.673,540.726 L467.064,808.259 L467.106,808.278 L348.416,1075.991 L347.031,1075.372 L465.641,807.840 L465.598,807.821 L584.208,540.288 L584.166,540.270 L702.776,272.737 L702.734,272.718 L821.424,5.005 L822.809,5.624 L704.199,273.156 L704.241,273.175 ZM696.641,273.175 L578.031,540.707 L578.073,540.726 L459.463,808.259 L459.505,808.278 L340.815,1075.991 L339.430,1075.372 L458.040,807.840 L457.998,807.821 L576.608,540.288 L576.566,540.270 L695.175,272.737 L695.133,272.718 L813.823,5.005 L815.208,5.624 L696.599,273.156 L696.641,273.175 ZM689.040,273.175 L570.430,540.707 L570.472,540.726 L451.863,808.259 L451.905,808.278 L333.215,1075.991 L331.830,1075.372 L450.440,807.840 L450.398,807.821 L569.007,540.288 L568.965,540.270 L687.575,272.737 L687.533,272.718 L806.223,5.005 L807.608,5.624 L688.998,273.156 L689.040,273.175 ZM681.440,273.175 L562.830,540.707 L562.872,540.726 L444.262,808.259 L444.304,808.278 L325.614,1075.991 L324.229,1075.372 L442.839,807.840 L442.797,807.821 L561.407,540.288 L561.365,540.270 L679.974,272.737 L679.932,272.718 L798.622,5.005 L800.007,5.624 L681.398,273.156 L681.440,273.175 ZM673.839,273.175 L555.229,540.707 L555.272,540.726 L436.662,808.259 L436.704,808.278 L318.014,1075.991 L316.629,1075.372 L435.239,807.840 L435.197,807.821 L553.806,540.288 L553.764,540.270 L672.374,272.737 L672.332,272.718 L791.022,5.005 L792.407,5.624 L673.797,273.156 L673.839,273.175 ZM666.239,273.175 L547.629,540.707 L547.671,540.726 L429.061,808.259 L429.103,808.278 L310.413,1075.991 L309.028,1075.372 L427.638,807.840 L427.596,807.821 L546.206,540.288 L546.164,540.270 L664.773,272.737 L664.731,272.718 L783.422,5.005 L784.806,5.624 L666.197,273.156 L666.239,273.175 ZM658.638,273.175 L540.028,540.707 L540.071,540.726 L421.461,808.259 L421.503,808.278 L302.813,1075.991 L301.428,1075.372 L420.038,807.840 L419.995,807.821 L538.605,540.288 L538.563,540.270 L657.173,272.737 L657.131,272.718 L775.821,5.005 L777.206,5.624 L658.596,273.156 L658.638,273.175 ZM651.038,273.175 L532.428,540.707 L532.470,540.726 L413.860,808.259 L413.902,808.278 L295.212,1075.991 L293.827,1075.372 L412.437,807.840 L412.395,807.821 L531.005,540.288 L530.963,540.270 L649.572,272.737 L649.530,272.718 L768.220,5.005 L769.605,5.624 L650.996,273.156 L651.038,273.175 ZM643.437,273.175 L524.827,540.707 L524.869,540.726 L406.260,808.259 L406.302,808.278 L287.612,1075.991 L286.227,1075.372 L404.837,807.840 L404.795,807.821 L523.404,540.288 L523.362,540.270 L641.972,272.737 L641.930,272.718 L760.620,5.005 L762.005,5.624 L643.395,273.156 L643.437,273.175 ZM635.837,273.175 L517.227,540.707 L517.269,540.726 L398.659,808.259 L398.701,808.278 L280.011,1075.991 L278.626,1075.372 L397.236,807.840 L397.194,807.821 L515.804,540.288 L515.762,540.270 L634.372,272.737 L634.329,272.718 L753.020,5.005 L754.404,5.624 L635.795,273.156 L635.837,273.175 ZM628.236,273.175 L509.626,540.707 L509.669,540.726 L391.059,808.259 L391.101,808.278 L272.411,1075.991 L271.026,1075.372 L389.636,807.840 L389.594,807.821 L508.203,540.288 L508.161,540.270 L626.771,272.737 L626.729,272.718 L745.419,5.005 L746.804,5.624 L628.194,273.156 L628.236,273.175 ZM620.636,273.175 L502.026,540.707 L502.068,540.726 L383.458,808.259 L383.500,808.278 L264.810,1075.991 L263.426,1075.372 L382.035,807.840 L381.993,807.821 L500.603,540.288 L500.561,540.270 L619.170,272.737 L619.128,272.718 L737.819,5.005 L739.203,5.624 L620.594,273.156 L620.636,273.175 ZM613.035,273.175 L494.425,540.707 L494.468,540.726 L375.858,808.259 L375.900,808.278 L257.210,1075.991 L255.825,1075.372 L374.435,807.840 L374.393,807.821 L493.002,540.288 L492.960,540.270 L611.570,272.737 L611.528,272.718 L730.218,5.005 L731.603,5.624 L612.993,273.156 L613.035,273.175 ZM605.435,273.175 L486.825,540.707 L486.867,540.726 L368.257,808.259 L368.300,808.278 L249.609,1075.991 L248.224,1075.372 L366.834,807.840 L366.792,807.821 L485.402,540.288 L485.360,540.270 L603.970,272.737 L603.927,272.718 L722.618,5.005 L724.002,5.624 L605.393,273.156 L605.435,273.175 ZM597.834,273.175 L479.225,540.707 L479.267,540.726 L360.657,808.259 L360.699,808.278 L242.009,1075.991 L240.624,1075.372 L359.234,807.840 L359.192,807.821 L477.801,540.288 L477.759,540.270 L596.369,272.737 L596.327,272.718 L715.017,5.005 L716.402,5.624 L597.792,273.156 L597.834,273.175 ZM590.234,273.175 L471.624,540.707 L471.666,540.726 L353.056,808.259 L353.098,808.278 L234.408,1075.991 L233.024,1075.372 L351.633,807.840 L351.591,807.821 L470.201,540.288 L470.159,540.270 L588.769,272.737 L588.726,272.718 L707.417,5.005 L708.801,5.624 L590.192,273.156 L590.234,273.175 ZM582.633,273.175 L464.023,540.707 L464.066,540.726 L345.456,808.259 L345.498,808.278 L226.808,1075.991 L225.423,1075.372 L344.033,807.840 L343.991,807.821 L462.600,540.288 L462.558,540.270 L581.168,272.737 L581.126,272.718 L699.816,5.005 L701.201,5.624 L582.591,273.156 L582.633,273.175 ZM575.033,273.175 L456.423,540.707 L456.465,540.726 L337.855,808.259 L337.898,808.278 L219.207,1075.991 L217.823,1075.372 L336.432,807.840 L336.390,807.821 L455.000,540.288 L454.958,540.270 L573.568,272.737 L573.526,272.718 L692.216,5.005 L693.600,5.624 L574.991,273.156 L575.033,273.175 ZM567.432,273.175 L448.823,540.707 L448.865,540.726 L330.255,808.259 L330.297,808.278 L211.607,1075.991 L210.222,1075.372 L328.832,807.840 L328.790,807.821 L447.399,540.288 L447.357,540.270 L565.967,272.737 L565.925,272.718 L684.615,5.005 L686.000,5.624 L567.390,273.156 L567.432,273.175 ZM559.832,273.175 L441.222,540.707 L441.264,540.726 L322.654,808.259 L322.697,808.278 L204.006,1075.991 L202.622,1075.372 L321.231,807.840 L321.189,807.821 L439.799,540.288 L439.757,540.270 L558.367,272.737 L558.324,272.718 L677.015,5.005 L678.400,5.624 L559.790,273.156 L559.832,273.175 ZM552.231,273.175 L433.622,540.707 L433.664,540.726 L315.054,808.259 L315.096,808.278 L196.406,1075.991 L195.021,1075.372 L313.631,807.840 L313.589,807.821 L432.199,540.288 L432.156,540.270 L550.766,272.737 L550.724,272.718 L669.414,5.005 L670.799,5.624 L552.189,273.156 L552.231,273.175 ZM544.631,273.175 L426.021,540.707 L426.063,540.726 L307.453,808.259 L307.496,808.278 L188.805,1075.991 L187.421,1075.372 L306.030,807.840 L305.988,807.821 L424.598,540.288 L424.556,540.270 L543.166,272.737 L543.124,272.718 L661.814,5.005 L663.198,5.624 L544.589,273.156 L544.631,273.175 ZM537.030,273.175 L418.421,540.707 L418.463,540.726 L299.853,808.259 L299.895,808.278 L181.205,1075.991 L179.820,1075.372 L298.430,807.840 L298.388,807.821 L416.997,540.288 L416.955,540.270 L535.565,272.737 L535.523,272.718 L654.213,5.005 L655.598,5.624 L536.988,273.156 L537.030,273.175 ZM529.430,273.175 L410.820,540.707 L410.862,540.726 L292.252,808.259 L292.295,808.278 L173.604,1075.991 L172.220,1075.372 L290.829,807.840 L290.787,807.821 L409.397,540.288 L409.355,540.270 L527.965,272.737 L527.923,272.718 L646.613,5.005 L647.998,5.624 L529.388,273.156 L529.430,273.175 ZM521.829,273.175 L403.220,540.707 L403.262,540.726 L284.652,808.259 L284.694,808.278 L166.004,1075.991 L164.619,1075.372 L283.229,807.840 L283.187,807.821 L401.797,540.288 L401.754,540.270 L520.364,272.737 L520.322,272.718 L639.012,5.005 L640.397,5.624 L521.787,273.156 L521.829,273.175 ZM514.229,273.175 L395.619,540.707 L395.661,540.726 L277.052,808.259 L277.094,808.278 L158.403,1075.991 L157.019,1075.372 L275.628,807.840 L275.586,807.821 L394.196,540.288 L394.154,540.270 L512.764,272.737 L512.722,272.718 L631.412,5.005 L632.797,5.624 L514.187,273.156 L514.229,273.175 ZM506.628,273.175 L388.019,540.707 L388.061,540.726 L269.451,808.259 L269.493,808.278 L150.803,1075.991 L149.418,1075.372 L268.028,807.840 L267.986,807.821 L386.596,540.288 L386.553,540.270 L505.163,272.737 L505.121,272.718 L623.811,5.005 L625.196,5.624 L506.586,273.156 L506.628,273.175 ZM499.028,273.175 L380.418,540.707 L380.460,540.726 L261.850,808.259 L261.893,808.278 L143.202,1075.991 L141.818,1075.372 L260.427,807.840 L260.385,807.821 L378.995,540.288 L378.953,540.270 L497.563,272.737 L497.521,272.718 L616.211,5.005 L617.596,5.624 L498.986,273.156 L499.028,273.175 ZM491.427,273.175 L372.818,540.707 L372.860,540.726 L254.250,808.259 L254.292,808.278 L135.602,1075.991 L134.217,1075.372 L252.827,807.840 L252.785,807.821 L371.395,540.288 L371.353,540.270 L489.962,272.737 L489.920,272.718 L608.610,5.005 L609.995,5.624 L491.385,273.156 L491.427,273.175 ZM483.827,273.175 L365.217,540.707 L365.259,540.726 L246.650,808.259 L246.692,808.278 L128.002,1075.991 L126.617,1075.372 L245.226,807.840 L245.184,807.821 L363.794,540.288 L363.752,540.270 L482.362,272.737 L482.320,272.718 L601.010,5.005 L602.395,5.624 L483.785,273.156 L483.827,273.175 ZM476.227,273.175 L357.617,540.707 L357.659,540.726 L239.049,808.259 L239.091,808.278 L120.401,1075.991 L119.016,1075.372 L237.626,807.840 L237.584,807.821 L356.194,540.288 L356.151,540.270 L474.761,272.737 L474.719,272.718 L593.409,5.005 L594.794,5.624 L476.184,273.156 L476.227,273.175 ZM468.626,273.175 L350.016,540.707 L350.058,540.726 L231.449,808.259 L231.491,808.278 L112.800,1075.991 L111.416,1075.372 L230.025,807.840 L229.983,807.821 L348.593,540.288 L348.551,540.270 L467.161,272.737 L467.119,272.718 L585.809,5.005 L587.194,5.624 L468.584,273.156 L468.626,273.175 ZM461.025,273.175 L342.416,540.707 L342.458,540.726 L223.848,808.259 L223.890,808.278 L105.200,1075.991 L103.815,1075.372 L222.425,807.840 L222.383,807.821 L340.993,540.288 L340.951,540.270 L459.560,272.737 L459.518,272.718 L578.208,5.005 L579.593,5.624 L460.983,273.156 L461.025,273.175 ZM453.425,273.175 L334.815,540.707 L334.857,540.726 L216.248,808.259 L216.290,808.278 L97.600,1075.991 L96.215,1075.372 L214.825,807.840 L214.782,807.821 L333.392,540.288 L333.350,540.270 L451.960,272.737 L451.918,272.718 L570.608,5.005 L571.993,5.624 L453.383,273.156 L453.425,273.175 ZM445.825,273.175 L327.215,540.707 L327.257,540.726 L208.647,808.259 L208.689,808.278 L89.999,1075.991 L88.614,1075.372 L207.224,807.840 L207.182,807.821 L325.792,540.288 L325.750,540.270 L444.359,272.737 L444.317,272.718 L563.007,5.005 L564.392,5.624 L445.783,273.156 L445.825,273.175 ZM438.224,273.175 L319.614,540.707 L319.656,540.726 L201.047,808.259 L201.089,808.278 L82.399,1075.991 L81.014,1075.372 L199.624,807.840 L199.581,807.821 L318.191,540.288 L318.149,540.270 L436.759,272.737 L436.717,272.718 L555.407,5.005 L556.792,5.624 L438.182,273.156 L438.224,273.175 ZM430.624,273.175 L312.014,540.707 L312.056,540.726 L193.446,808.259 L193.488,808.278 L74.798,1075.991 L73.413,1075.372 L192.023,807.840 L191.981,807.821 L310.591,540.288 L310.549,540.270 L429.158,272.737 L429.116,272.718 L547.806,5.005 L549.191,5.624 L430.581,273.156 L430.624,273.175 ZM423.023,273.175 L304.413,540.707 L304.455,540.726 L185.846,808.259 L185.888,808.278 L67.198,1075.991 L65.813,1075.372 L184.423,807.840 L184.380,807.821 L302.990,540.288 L302.948,540.270 L421.558,272.737 L421.516,272.718 L540.206,5.005 L541.591,5.624 L422.981,273.156 L423.023,273.175 ZM415.423,273.175 L296.813,540.707 L296.855,540.726 L178.245,808.259 L178.287,808.278 L59.597,1075.991 L58.212,1075.372 L176.822,807.840 L176.780,807.821 L295.390,540.288 L295.348,540.270 L413.957,272.737 L413.915,272.718 L532.605,5.005 L533.990,5.624 L415.381,273.156 L415.423,273.175 ZM407.822,273.175 L289.212,540.707 L289.254,540.726 L170.645,808.259 L170.687,808.278 L51.997,1075.991 L50.612,1075.372 L169.222,807.840 L169.179,807.821 L287.789,540.288 L287.747,540.270 L406.357,272.737 L406.315,272.718 L525.005,5.005 L526.390,5.624 L407.780,273.156 L407.822,273.175 ZM400.222,273.175 L281.612,540.707 L281.654,540.726 L163.044,808.259 L163.086,808.278 L44.396,1075.991 L43.011,1075.372 L161.621,807.840 L161.579,807.821 L280.189,540.288 L280.147,540.270 L398.756,272.737 L398.714,272.718 L517.404,5.005 L518.789,5.624 L400.180,273.156 L400.222,273.175 ZM392.621,273.175 L274.011,540.707 L274.053,540.726 L155.444,808.259 L155.486,808.278 L36.796,1075.991 L35.411,1075.372 L154.021,807.840 L153.979,807.821 L272.588,540.288 L272.546,540.270 L391.156,272.737 L391.114,272.718 L509.804,5.005 L511.189,5.624 L392.579,273.156 L392.621,273.175 ZM385.021,273.175 L266.411,540.707 L266.453,540.726 L147.843,808.259 L147.885,808.278 L29.195,1075.991 L27.810,1075.372 L146.420,807.840 L146.378,807.821 L264.988,540.288 L264.946,540.270 L383.555,272.737 L383.513,272.718 L502.203,5.005 L503.588,5.624 L384.979,273.156 L385.021,273.175 ZM377.420,273.175 L258.810,540.707 L258.853,540.726 L140.243,808.259 L140.285,808.278 L21.595,1075.991 L20.210,1075.372 L138.820,807.840 L138.777,807.821 L257.387,540.288 L257.345,540.270 L375.955,272.737 L375.913,272.718 L494.603,5.005 L495.988,5.624 L377.378,273.156 L377.420,273.175 ZM369.820,273.175 L251.210,540.707 L251.252,540.726 L132.642,808.259 L132.684,808.278 L13.994,1075.991 L12.609,1075.372 L131.219,807.840 L131.177,807.821 L249.787,540.288 L249.745,540.270 L368.354,272.737 L368.312,272.718 L487.002,5.005 L488.387,5.624 L369.778,273.156 L369.820,273.175 ZM362.219,273.175 L243.609,540.707 L243.652,540.726 L125.042,808.259 L125.084,808.278 L6.394,1075.991 L5.009,1075.372 L123.619,807.840 L123.576,807.821 L242.186,540.288 L242.144,540.270 L360.754,272.737 L360.712,272.718 L479.402,5.005 L480.787,5.624 L362.177,273.156 L362.219,273.175 Z"/>
</g>
</svg>