<svg 
 xmlns="http://www.w3.org/2000/svg"
 xmlns:xlink="http://www.w3.org/1999/xlink"
 width="20px" height="20px">
<path fill-rule="evenodd"  fill="rgb(255, 255, 255)"
 d="M4.000,6.943 L4.000,5.947 L11.000,5.947 L11.000,6.943 L4.000,6.943 Z"/>
<path fill-rule="evenodd"  fill="rgb(255, 255, 255)"
 d="M-0.000,1.964 L-0.000,0.968 L15.000,0.968 L15.000,1.964 L-0.000,1.964 Z"/>
<path fill-rule="evenodd"  fill="rgb(255, 255, 255)"
 d="M-0.000,0.968 L1.000,0.968 L1.000,19.890 L-0.000,19.890 L-0.000,0.968 Z"/>
<path fill-rule="evenodd"  fill="rgb(255, 255, 255)"
 d="M14.000,0.968 L15.000,0.968 L15.000,8.935 L14.000,8.935 L14.000,0.968 Z"/>
<path fill-rule="evenodd"  fill="rgb(255, 255, 255)"
 d="M14.000,11.923 L15.000,11.923 L15.000,19.890 L14.000,19.890 L14.000,11.923 Z"/>
<path fill-rule="evenodd"  fill="rgb(255, 255, 255)"
 d="M-0.000,19.890 L-0.000,18.894 L15.000,18.894 L15.000,19.890 L-0.000,19.890 Z"/>
<path fill-rule="evenodd"  fill="rgb(255, 255, 255)"
 d="M4.000,10.927 L4.000,9.931 L11.000,9.931 L11.000,10.927 L4.000,10.927 Z"/>
<path fill-rule="evenodd"  fill="rgb(255, 255, 255)"
 d="M4.000,14.911 L4.000,13.915 L11.000,13.915 L11.000,14.911 L4.000,14.911 Z"/>
<path fill-rule="evenodd"  fill="rgb(255, 255, 255)"
 d="M13.000,10.927 L13.000,9.931 L20.000,9.931 L20.000,10.927 L13.000,10.927 Z"/>
<path fill-rule="evenodd"  fill="rgb(255, 255, 255)"
 d="M16.991,8.682 L17.746,7.931 L20.009,10.184 L19.254,10.935 L16.991,8.682 Z"/>
<path fill-rule="evenodd"  fill="rgb(255, 255, 255)"
 d="M16.991,12.176 L17.746,12.927 L20.009,10.674 L19.254,9.923 L16.991,12.176 Z"/>
</svg>